<svg width="159" height="81" viewBox="0 0 159 81" fill="none" xmlns="http://www.w3.org/2000/svg">
<path d="M71.6716 40.4403C71.6716 42.929 73.8594 44.404 75.7172 44.404C76.2435 44.4137 76.7665 44.3184 77.2555 44.1236C77.7446 43.9288 78.19 43.6384 78.5656 43.2693C78.9413 42.9003 79.2396 42.46 79.4433 41.9743C79.647 41.4885 79.7519 40.967 79.7519 40.4402C79.7519 39.9135 79.647 39.392 79.4433 38.9062C79.2396 38.4205 78.9413 37.9802 78.5656 37.6112C78.19 37.2421 77.7446 36.9517 77.2555 36.7569C76.7665 36.5621 76.2435 36.4668 75.7172 36.4765C73.8594 36.4765 71.6716 37.9512 71.6716 40.4403ZM77.8362 40.4403C77.8336 40.8592 77.7072 41.268 77.4727 41.6151C77.2383 41.9622 76.9064 42.232 76.519 42.3905C76.1315 42.5491 75.7057 42.5892 75.2955 42.5059C74.8852 42.4226 74.5088 42.2196 74.2137 41.9224C73.9186 41.6253 73.7181 41.2473 73.6374 40.8362C73.5567 40.4252 73.5995 39.9994 73.7603 39.6126C73.9211 39.2258 74.1928 38.8953 74.5411 38.6629C74.8893 38.4304 75.2986 38.3064 75.7172 38.3065C76.0017 38.2869 76.287 38.3288 76.5538 38.4293C76.8207 38.5298 77.0628 38.6865 77.2638 38.8889C77.4648 39.0913 77.6199 39.3346 77.7187 39.6023C77.8174 39.8699 77.8575 40.1557 77.8362 40.4403ZM28.8952 31.2538C32.4628 31.2538 36.0303 29.0654 36.0303 24.6658V15.825H32.93V24.6658C32.93 27.0253 30.912 28.1935 28.8952 28.1935C26.8784 28.1935 24.8398 27.0253 24.8398 24.6658V15.825H21.7383V24.6658C21.7383 29.0654 25.3277 31.2538 28.8952 31.2538ZM39.948 15.825V30.7012H52.3714V28.0453H43.0495V15.825H39.948ZM3.10153 21.7112L8.3886 30.7012H9.47218L14.7593 21.7112V30.7012H17.8596V15.825H14.6743L8.91891 26.3659L3.18649 15.825H0V30.7012H3.10153V21.7112ZM142.395 26.7059C142.395 23.2 138.806 22.4763 135.918 21.9249C133.879 21.5205 132.18 21.1805 132.18 19.9479C132.18 18.736 133.454 18.2259 135.068 18.2259H141.417V15.4207L134.876 15.4C131.692 15.4425 128.782 16.7176 128.782 19.8629C128.782 23.3056 132.308 24.0707 135.175 24.6864C137.234 25.1115 138.976 25.4951 138.976 26.7909C138.976 27.896 137.701 28.3854 136.024 28.3854H128.549V31.2113H135.685C139.209 31.2113 142.395 29.9155 142.395 26.7059ZM152.122 30.7012H158.896V28.066H152.143C149.985 28.066 148.712 26.4589 148.305 24.5807H156.282V21.9455H148.306C148.719 20.0576 150.015 18.4603 152.228 18.4603H158.896V15.825H152.122C147.45 15.9732 144.923 19.6078 144.923 23.2631C144.923 26.9184 147.45 30.5531 152.122 30.7012ZM115.052 24.9633H118.704L122.547 30.7012H126.412L122.017 24.7715C122.916 24.4474 123.693 23.8527 124.24 23.069C124.788 22.2852 125.079 21.351 125.075 20.3947C125.086 19.7915 124.976 19.1922 124.75 18.6326C124.525 18.073 124.189 17.5647 123.763 17.1381C123.337 16.7115 122.829 16.3753 122.269 16.1497C121.71 15.9241 121.111 15.8137 120.509 15.8251H111.95V30.7012H115.052V24.9633ZM115.052 18.4809H119.659C121.124 18.4809 121.847 19.4378 121.847 20.3947C121.847 21.3505 121.124 22.3062 119.659 22.3062H115.052V18.4809ZM101.213 30.7012H107.987V28.066H101.234C99.0757 28.066 97.8039 26.4589 97.3975 24.5807H106.373V21.9455H97.3987C97.8096 20.0576 99.1056 18.4603 101.319 18.4603H107.987V15.825H101.213C96.5412 15.9732 94.0136 19.6078 94.0136 23.2631C94.0136 26.9184 96.5412 30.5531 101.213 30.7012ZM56.1031 3.02462C65.5959 3.02462 71.1964 7.67243 77.4947 20.7658L82.3915 31.2096H82.5338L82.5327 31.2113H85.7708L92.6408 16.0801H89.3716L84.1075 27.7266L80.2565 19.4574C73.4221 5.2486 66.8758 0 56.1031 0C43.4031 0 38.7887 8.39385 38.5981 8.75225L41.2945 10.1928C41.4529 9.89984 45.312 3.02462 56.1031 3.02462ZM59.914 30.7012V18.4396H65.9299V15.825H50.8677V18.4396H56.8136V30.7012H59.914ZM122.037 57.6174C122.037 53.9621 119.511 50.3286 114.839 50.1793H106.706V65.0555H114.839C119.511 64.9061 122.037 61.2727 122.037 57.6174ZM114.732 62.3996H109.805V52.8145H114.732C117.45 52.8145 118.809 55.2154 118.809 57.6174C118.809 59.9976 117.45 62.3996 114.732 62.3996ZM124.541 77.9754C117.054 77.9754 109.068 72.0749 102.283 64.8412V50.1793H99.183V61.36C96.2021 57.8198 93.4605 54.0846 90.9763 50.1793H86.7608V65.0555H89.9668V53.66C96.3759 63.1043 110.645 81 124.541 81C136.013 81 142.496 72.5235 142.767 72.1616L140.32 70.3282C140.262 70.4052 134.445 77.9754 124.541 77.9754V77.9754ZM84.9357 38.3823H87.329V36.7212H84.7061C83.7954 36.7212 82.9219 37.0832 82.2778 37.7276C81.6337 38.3721 81.2718 39.2462 81.2717 40.1577V44.1593H83.156V41.8251H86.6277V40.164H83.156C83.156 38.9957 83.7689 38.3823 84.9357 38.3823V38.3823ZM132.449 62.7396H124.974V65.5655H132.109C135.635 65.5655 138.819 64.2697 138.819 61.0602C138.819 57.5542 135.231 56.8305 132.343 56.2791C130.305 55.8747 128.606 55.5347 128.606 54.3021C128.606 53.0902 129.88 52.5802 131.494 52.5802H137.844V49.7749L131.303 49.7542C128.117 49.7968 125.208 51.0719 125.208 54.2171C125.208 57.6599 128.733 58.4249 131.599 59.0407C133.66 59.4657 135.401 59.8494 135.401 61.1452C135.401 62.2503 134.127 62.7396 132.449 62.7396ZM92.6132 39.728V41.1525H159V39.728H92.6132ZM24.2773 50.1793H21.1781V65.0555H33.6003V62.3996H24.2773V50.1793ZM69.354 57.607C69.354 61.2623 71.8816 64.8969 76.5534 65.0451H83.327V62.4099H76.5741C74.4161 62.4099 73.1431 60.8034 72.7374 58.9246H80.7133V56.2894H72.7379C73.1494 54.402 74.4454 52.8041 76.659 52.8041H83.327V50.1689H76.5535C71.8816 50.3171 69.354 53.9517 69.354 57.607H69.354ZM59.8818 58.9557H63.3231V62.4203H59.2241C56.5691 62.3559 55.2318 59.9976 55.2318 57.6174C55.2318 55.2154 56.5909 52.8145 59.309 52.8145H65.977V50.1793H59.2023C54.5305 50.3286 52.004 53.9621 52.004 57.6174C52.004 61.2726 54.5305 64.9061 59.2023 65.0554H66.2525V56.7891H59.8818L59.8818 58.9557ZM35.6492 57.607C35.6492 61.2623 38.1768 64.8969 42.8486 65.0451H49.6222V62.4099H42.8693C40.7113 62.4099 39.4389 60.8034 39.0326 58.9246H47.0091V56.2894H39.0337C39.4452 54.402 40.7412 52.8041 42.9543 52.8041H49.6222V50.1689H42.8487C38.1769 50.3171 35.6493 53.9517 35.6493 57.607H35.6492ZM0 41.1525H66.3879V39.728H0V41.1525ZM72.2363 15.825H69.1371V30.7012H72.2363V15.825Z" fill="white"/>
</svg>
