<?xml version="1.0" standalone="no"?>
<!DOCTYPE svg PUBLIC "-//W3C//DTD SVG 20010904//EN"
 "http://www.w3.org/TR/2001/REC-SVG-20010904/DTD/svg10.dtd">
<svg version="1.0" xmlns="http://www.w3.org/2000/svg"
 width="310.000000pt" height="310.000000pt" viewBox="0 0 310.000000 310.000000"
 preserveAspectRatio="xMidYMid meet">
<metadata>
Created by potrace 1.14, written by Peter Selinger 2001-2017
</metadata>
<g transform="translate(0.000000,310.000000) scale(0.100000,-0.100000)"
fill="#000000" stroke="none">
<path d="M1499 2932 c-13 -15 -12 -16 4 -3 20 15 23 2 5 -18 -11 -11 -10 -12
2 -6 12 7 13 6 2 -6 -10 -10 -15 -11 -20 -2 -11 18 -44 9 -60 -16 -13 -19 -13
-21 2 -15 9 3 13 11 9 18 -3 6 -3 8 2 4 4 -4 15 -2 23 5 11 8 14 8 9 0 -4 -6
-1 -14 5 -17 7 -3 4 -4 -7 -3 -12 1 -19 -3 -17 -11 1 -8 -2 -11 -8 -7 -6 4
-18 1 -27 -7 -12 -9 -15 -9 -9 0 4 7 2 12 -4 12 -6 0 -8 5 -4 12 4 7 3 8 -4 4
-8 -5 -8 -15 -2 -32 7 -17 7 -23 0 -19 -6 3 -13 -1 -16 -10 -5 -13 -9 -14 -15
-4 -6 10 -13 7 -29 -12 -20 -22 -20 -22 -10 -2 12 25 44 46 54 36 3 -3 6 -1 6
5 0 6 -4 14 -10 17 -5 3 -10 1 -10 -5 0 -6 -4 -9 -9 -6 -5 3 -11 -1 -15 -9 -3
-8 -12 -12 -20 -9 -8 3 -17 1 -21 -5 -3 -7 0 -8 9 -5 12 5 11 -3 -5 -36 -16
-33 -24 -40 -39 -35 -14 5 -18 2 -15 -8 4 -8 0 -14 -10 -14 -8 0 -15 5 -15 10
0 6 -3 8 -6 5 -3 -4 2 -18 11 -32 19 -29 15 -34 -10 -10 -9 9 -18 14 -21 11
-3 -2 2 -11 10 -20 14 -13 14 -16 -1 -21 -9 -4 -18 -4 -21 -1 -3 3 0 5 7 5 7
0 9 5 5 11 -5 8 -10 7 -16 -4 -5 -10 -16 -14 -26 -11 -14 5 -15 4 -2 -5 14
-10 7 -16 -14 -12 -5 1 -1 -9 8 -24 20 -31 14 -33 -13 -4 l-20 21 6 -21 c3
-11 10 -21 17 -21 6 0 4 -5 -4 -10 -8 -5 -19 -10 -25 -10 -5 0 -4 4 4 9 8 5 9
11 3 15 -5 3 -13 -1 -16 -10 -3 -8 -11 -12 -17 -8 -7 4 -9 3 -5 -4 3 -6 2 -13
-4 -17 -5 -3 -10 -12 -10 -18 0 -7 9 -1 20 13 11 14 20 20 20 13 0 -6 -5 -15
-10 -18 -6 -4 -8 -11 -4 -16 3 -5 0 -8 -8 -7 -7 2 -12 -2 -11 -7 1 -6 -8 -12
-20 -12 -21 -2 -21 -1 -4 12 10 7 14 16 9 19 -6 3 -13 -1 -16 -10 -3 -8 -10
-13 -15 -9 -5 3 -13 0 -17 -6 -4 -7 -3 -9 3 -6 6 4 14 0 17 -9 4 -11 2 -15 -7
-11 -15 6 -38 -26 -33 -45 1 -7 1 -10 -1 -5 -3 4 -9 4 -14 1 -6 -3 -5 -12 3
-22 10 -12 7 -12 -15 3 -15 10 -30 15 -34 11 -3 -3 -1 -6 5 -6 19 0 14 -24 -9
-43 -17 -15 -18 -21 -8 -33 9 -12 9 -13 -2 -9 -8 3 -31 -10 -52 -30 -29 -27
-44 -34 -60 -30 -15 4 -18 3 -9 -3 11 -7 11 -10 -2 -15 -9 -4 -13 -12 -11 -19
3 -8 -2 -22 -11 -33 -8 -11 -12 -13 -8 -5 7 13 5 13 -9 1 -20 -16 -12 -35 12
-27 14 5 14 4 -1 -7 -10 -8 -14 -18 -10 -22 4 -5 2 -5 -4 -2 -7 4 -17 0 -24
-8 -7 -8 -16 -13 -20 -10 -9 5 -23 -22 -24 -44 -1 -18 -56 -27 -56 -10 0 7 -3
9 -6 6 -4 -4 -2 -12 4 -20 7 -8 7 -18 2 -27 -6 -9 -10 -10 -10 -3 0 6 -9 11
-19 10 -12 -1 -17 -6 -13 -16 3 -9 1 -12 -6 -7 -8 4 -10 2 -6 -8 3 -9 12 -12
22 -8 14 5 15 4 2 -10 -8 -9 -19 -15 -25 -15 -5 1 -9 -3 -8 -10 3 -12 -14 -12
-34 0 -6 4 -15 2 -19 -4 -4 -7 -3 -9 3 -6 27 17 17 -23 -13 -57 -19 -21 -34
-35 -34 -30 0 4 9 18 21 30 19 21 20 22 3 20 -11 -2 -19 -9 -19 -17 -1 -8 -6
-13 -13 -12 -7 2 -12 -2 -12 -8 0 -5 -5 -7 -12 -3 -6 4 -9 3 -6 -2 3 -5 2 -20
-3 -33 -8 -20 -11 -22 -27 -10 -15 13 -16 12 -3 -4 11 -13 17 -15 28 -6 7 7
16 9 20 5 3 -3 1 -6 -6 -6 -7 0 -11 -7 -8 -15 5 -11 1 -12 -19 -5 -23 9 -24 9
-9 -13 13 -21 13 -23 -5 -24 -11 -1 -20 3 -20 8 0 6 5 7 12 3 7 -4 8 -3 4 4
-10 17 -15 15 -26 -13 -7 -17 -15 -23 -27 -19 -15 5 -15 4 -3 -4 10 -8 18 -8
27 0 8 6 16 8 20 4 3 -3 1 -6 -6 -6 -7 0 -9 -5 -5 -12 4 -7 4 -10 -1 -6 -4 4
-19 -2 -33 -12 -24 -19 -26 -20 -46 -3 -21 18 -21 18 -3 -3 9 -11 14 -25 10
-29 -5 -5 -1 -4 9 3 12 10 18 10 24 1 4 -7 3 -9 -4 -5 -6 3 -14 1 -17 -5 -4
-5 -13 -8 -21 -5 -7 3 -16 1 -19 -5 -4 -5 -12 -6 -18 -2 -7 4 -7 0 1 -10 8 -9
11 -22 7 -29 -4 -7 0 -4 9 6 8 10 13 23 9 29 -3 6 -1 7 5 3 9 -5 9 -13 0 -29
-7 -12 -11 -25 -10 -29 1 -4 -5 -5 -13 -2 -10 4 -13 0 -10 -16 3 -17 0 -20
-12 -16 -13 6 -14 4 -3 -9 10 -12 15 -13 21 -3 4 6 6 15 4 18 -2 4 2 7 10 7
11 0 12 -4 4 -13 -6 -7 -7 -19 -3 -25 4 -8 3 -9 -4 -5 -7 4 -12 2 -12 -4 0 -6
-5 -8 -11 -4 -8 5 -8 1 0 -13 6 -11 7 -24 3 -28 -4 -5 1 -5 10 -2 12 4 15 2
11 -8 -4 -11 -10 -12 -26 -4 -21 10 -21 9 1 -8 18 -15 20 -21 10 -31 -9 -9 -9
-12 0 -12 7 0 12 5 12 10 0 6 4 10 9 10 6 0 8 -9 6 -20 -2 -11 0 -20 6 -20 14
0 5 40 -12 50 -10 7 -8 9 8 7 12 0 21 -6 20 -12 -1 -5 5 -9 13 -7 8 2 12 0 8
-4 -4 -4 -3 -13 3 -21 8 -9 8 -17 0 -26 -8 -10 -7 -19 4 -33 8 -10 15 -14 15
-8 0 7 9 14 20 17 10 3 19 2 18 -2 -1 -3 8 -24 20 -46 12 -22 21 -33 20 -25
-2 8 2 15 7 15 5 0 9 -6 7 -12 -2 -7 5 -14 15 -15 10 0 24 -2 31 -2 8 -1 18
-9 23 -18 7 -12 4 -22 -11 -36 l-21 -19 25 2 c14 2 31 6 38 11 10 5 11 4 1 -7
-19 -20 -16 -34 4 -18 13 11 15 11 9 1 -5 -9 -3 -13 5 -11 26 3 39 -1 39 -12
0 -5 -6 -7 -12 -4 -7 4 -2 -2 11 -13 23 -18 22 -50 -1 -36 -7 4 -8 2 -4 -4 5
-9 13 -9 26 -2 25 14 30 13 30 -6 0 -8 -4 -13 -9 -9 -5 3 -12 1 -16 -4 -3 -6
3 -8 14 -6 18 3 59 -39 54 -57 -2 -3 5 -12 14 -20 12 -9 15 -9 9 0 -4 6 -3 12
2 12 6 0 12 -6 15 -14 3 -8 16 -12 32 -10 15 1 24 0 21 -3 -3 -3 2 -12 12 -20
16 -12 16 -13 -3 -7 -19 5 -19 5 -2 -9 18 -15 24 -32 7 -22 -5 3 -10 2 -10 -4
0 -21 18 -19 30 4 7 13 17 22 22 19 5 -3 1 -13 -9 -21 -14 -11 -15 -14 -2 -10
23 7 46 -8 24 -16 -9 -4 -13 -3 -10 3 3 6 -1 7 -10 3 -13 -4 -14 -8 -4 -13 7
-5 18 -6 25 -3 16 6 28 -14 13 -23 -8 -5 -9 -3 -4 6 5 8 4 11 -3 7 -5 -4 -8
-17 -4 -29 5 -21 6 -21 13 -2 7 18 8 18 15 -4 8 -26 17 -28 38 -6 9 8 17 11
17 5 1 -6 2 -16 3 -22 0 -7 10 -15 21 -20 15 -6 16 -8 4 -8 -9 -1 -19 -10 -22
-20 -4 -15 0 -19 14 -16 10 2 21 -1 24 -6 4 -5 10 -7 15 -4 11 7 22 -24 13
-37 -3 -7 -1 -8 5 -4 7 4 12 2 12 -3 0 -6 8 -11 17 -11 14 0 13 3 -5 20 -21
20 -27 30 -17 30 12 0 43 -44 37 -54 -13 -22 -10 -34 9 -31 11 2 28 -8 45 -28
27 -32 73 -70 61 -50 -4 6 3 11 18 10 24 0 24 0 4 -16 -21 -17 -21 -17 2 -18
19 -2 21 0 9 8 -13 9 -12 10 2 6 9 -3 19 -1 21 6 2 7 3 -7 2 -30 -2 -33 1 -40
13 -35 11 4 13 2 7 -8 -5 -9 -4 -11 4 -6 9 6 9 11 -1 24 -11 13 -10 15 5 9 11
-4 16 -3 12 4 -9 13 27 8 38 -6 5 -6 7 -4 4 5 -2 8 -9 14 -15 13 -5 -1 -16 4
-22 12 -9 11 -9 15 -1 15 6 0 11 -4 11 -8 0 -12 48 -13 56 0 4 7 3 8 -4 4 -7
-4 -19 -3 -28 2 -15 8 -15 10 0 15 10 4 15 3 11 -3 -3 -6 -2 -10 4 -10 5 0 13
5 16 10 3 6 17 8 30 6 13 -3 26 1 29 7 2 7 5 4 5 -7 1 -12 -4 -16 -14 -12 -22
8 -18 -2 5 -14 15 -8 20 -8 18 2 -2 6 2 13 7 13 23 3 45 18 39 26 -3 5 -1 9 4
9 5 0 9 7 9 15 0 21 -4 19 -21 -12 -8 -16 -15 -22 -16 -15 0 8 13 26 29 42 24
21 28 30 18 41 -10 11 -9 11 4 1 14 -10 18 -10 22 3 4 8 13 12 22 9 8 -3 12
-11 8 -17 -3 -6 -1 -7 6 -3 8 6 9 12 2 20 -7 9 -7 16 1 24 9 9 9 12 -2 12 -7
0 -11 3 -7 6 3 3 11 3 17 -1 8 -5 8 -11 -1 -21 -10 -12 -9 -13 5 -8 19 7 19 9
5 37 -12 21 -11 22 8 4 20 -17 20 -17 17 9 -1 14 1 23 4 19 4 -4 7 -12 7 -17
0 -6 7 -13 15 -15 13 -4 13 -3 0 6 -13 10 -8 15 12 12 4 0 5 6 2 14 -4 8 -11
12 -18 8 -6 -3 -3 3 7 14 9 11 14 22 11 26 -8 8 18 3 33 -6 6 -4 15 -2 19 4 4
7 3 9 -3 6 -6 -4 -13 0 -17 8 -3 8 0 14 7 12 7 -1 11 4 9 11 -1 6 1 11 5 10 5
-1 19 2 32 6 24 8 24 9 5 24 -19 15 -15 14 30 -4 9 -3 17 3 21 15 3 12 10 19
15 16 4 -3 13 1 19 9 9 11 8 18 -4 30 -15 14 -14 15 15 12 20 -2 29 1 27 8 -2
6 -13 10 -23 9 -10 -1 -13 0 -7 3 7 3 15 5 18 4 3 0 15 9 26 22 l20 23 -11
-23 c-7 -13 -9 -26 -6 -30 3 -3 6 1 6 9 0 12 2 11 11 -1 9 -13 10 -13 6 2 -6
18 16 31 29 18 5 -5 15 -5 24 1 13 9 12 10 -2 5 -10 -3 -20 -1 -23 4 -4 6 -1
10 4 10 6 0 11 5 11 12 0 6 -9 3 -20 -7 -11 -10 -20 -13 -20 -8 0 6 7 14 16
17 8 3 13 10 9 15 -3 5 0 13 6 17 8 5 9 3 4 -6 -5 -8 -3 -11 6 -8 8 3 13 11
11 17 -1 7 2 10 7 7 11 -7 35 20 27 32 -3 5 5 7 18 5 16 -3 28 2 38 16 8 11
18 18 22 14 4 -4 4 0 0 10 -3 9 -11 17 -17 17 -6 0 -7 3 -4 7 4 3 17 -2 28
-13 22 -19 22 -19 10 3 -16 32 -14 41 5 15 8 -12 21 -22 27 -22 9 0 8 3 -1 8
-16 11 -9 57 9 57 8 1 13 6 12 11 -1 6 5 11 13 11 10 0 6 -9 -12 -28 -20 -21
-23 -29 -12 -35 7 -4 10 -4 6 0 -4 5 4 20 17 34 13 13 21 31 18 38 -3 8 1 14
11 14 22 0 37 31 24 54 -5 9 -7 20 -4 23 3 4 6 1 6 -6 0 -7 5 -9 12 -5 6 4 8
3 4 -4 -7 -11 12 -11 31 1 9 6 11 26 3 47 -1 3 -2 8 -1 12 0 4 -7 5 -17 2 -10
-4 -13 -2 -7 3 6 4 11 15 13 23 2 8 8 17 13 18 5 2 9 8 9 14 0 6 -8 7 -17 3
-14 -5 -15 -3 -6 6 8 8 9 19 2 37 -7 18 -6 28 3 34 10 6 10 8 1 8 -7 0 -11 6
-9 13 1 6 1 9 -1 4 -3 -4 -9 -4 -14 -1 -6 3 -5 12 3 22 12 15 11 16 -4 3 -10
-7 -19 -11 -19 -7 -2 10 -6 25 -9 34 -1 4 -2 10 -1 15 0 4 -4 7 -10 7 -5 0 -7
5 -3 12 4 7 3 8 -5 4 -9 -6 -8 -14 4 -32 8 -13 11 -24 6 -24 -5 0 -13 10 -16
21 -6 17 -9 19 -17 8 -10 -14 -7 -2 8 36 6 13 -6 20 -28 16 -5 0 -8 4 -8 9 0
6 -4 10 -10 10 -5 0 -7 -7 -3 -16 3 -8 12 -13 20 -10 9 4 11 2 7 -6 -5 -7 -3
-8 6 -3 9 5 11 4 6 -3 -10 -16 -11 -16 -43 14 -28 26 -33 61 -9 76 8 6 8 8 -1
8 -6 0 -18 -9 -26 -20 -13 -19 -15 -19 -21 -4 -4 10 -2 22 4 28 8 8 9 5 4 -9
-8 -21 -6 -20 15 7 11 15 10 17 -8 13 -12 -2 -25 -6 -30 -10 -5 -3 -13 0 -16
6 -4 5 -14 8 -22 5 -8 -4 -11 -1 -8 5 4 6 13 8 21 5 8 -3 14 1 14 8 0 9 -10
12 -32 10 -24 -3 -29 -1 -18 6 11 7 11 10 2 10 -7 0 -10 5 -7 10 3 6 2 10 -4
10 -5 0 -12 -6 -14 -12 -4 -10 -6 -10 -6 0 -1 7 9 17 22 23 18 8 18 9 2 5 -11
-2 -29 -7 -40 -11 -18 -6 -18 -5 -2 5 9 6 17 15 17 20 0 16 -28 11 -38 -6 -8
-15 -10 -15 -15 0 -5 12 -3 15 6 10 7 -5 6 0 -3 12 -22 29 -24 30 -16 10 5
-15 2 -18 -18 -14 -15 3 -24 1 -23 -6 1 -6 -4 -10 -12 -8 -9 2 -11 -3 -7 -13
3 -9 2 -13 -4 -10 -6 3 -10 12 -10 19 0 8 -8 20 -17 27 -16 13 -17 12 -4 -3 9
-13 10 -18 2 -18 -7 0 -10 -4 -7 -9 7 -11 -21 -8 -31 4 -4 4 -2 5 5 1 6 -4 12
-3 12 3 0 5 -9 9 -20 8 -22 -1 -25 -8 -9 -24 7 -7 4 -10 -13 -9 -13 0 -22 -4
-21 -11 2 -7 -3 -12 -10 -10 -6 1 -11 -4 -10 -10 2 -7 -2 -13 -7 -13 -6 0 -10
7 -8 16 2 10 -5 18 -14 19 -10 2 -18 -1 -18 -6 0 -5 4 -9 9 -9 18 0 18 -37 -1
-60 -13 -16 -15 -25 -8 -30 8 -5 7 -9 -4 -13 -8 -3 -18 -1 -22 5 -4 6 -3 8 4
4 6 -3 9 1 7 11 -1 10 7 26 19 35 11 10 16 18 10 18 -6 0 -19 -9 -29 -20 -10
-11 -14 -20 -10 -20 4 0 0 -9 -10 -20 -10 -11 -22 -17 -27 -14 -5 3 -4 -3 4
-15 8 -13 16 -17 22 -11 6 6 14 10 20 10 15 0 -27 -29 -42 -30 -7 0 -10 5 -6
12 5 7 3 8 -5 3 -9 -5 -10 -10 -2 -18 6 -6 7 -16 1 -28 -8 -14 -5 -17 20 -15
16 1 27 0 25 -3 -3 -2 0 -10 6 -17 6 -8 8 -22 5 -31 -4 -10 -4 -14 0 -10 4 4
13 2 21 -4 11 -10 11 -15 1 -28 -11 -14 -11 -14 3 -4 21 17 33 5 16 -16 -11
-14 -10 -14 5 -2 19 14 53 8 43 -8 -3 -5 -2 -12 3 -15 15 -9 9 29 -6 40 -13 9
-12 11 2 11 8 0 18 -9 22 -19 3 -10 10 -18 15 -18 5 0 8 -3 8 -7 -3 -21 2 -33
12 -27 8 4 7 9 -2 15 -8 5 -10 9 -5 9 5 0 3 7 -4 15 -7 8 -9 15 -5 15 4 0 14
-8 21 -17 7 -10 18 -18 26 -18 8 0 12 -10 10 -24 -2 -24 -2 -24 19 -5 22 19
22 19 11 -2 -9 -16 -8 -21 3 -21 8 0 12 4 9 9 -3 4 2 5 10 2 9 -3 13 -10 10
-16 -3 -5 2 -8 11 -6 21 4 30 -24 23 -75 -1 -8 -7 -14 -14 -14 -10 0 -10 5 1
20 9 14 11 26 5 37 -5 10 -6 21 -2 25 4 5 1 5 -6 1 -8 -5 -9 -13 -3 -24 9 -19
4 -45 -8 -37 -5 2 -8 -6 -7 -18 1 -16 7 -21 21 -19 20 2 20 2 0 -10 -21 -13
-26 -15 -51 -17 -9 0 -12 -6 -8 -13 5 -8 2 -9 -10 -5 -9 4 -15 3 -12 -2 6 -9
-22 -26 -36 -23 -5 1 -8 -2 -8 -8 0 -13 5 -13 43 6 l32 15 -25 -20 c-14 -11
-29 -21 -33 -21 -5 0 -5 -4 -2 -10 3 -5 -1 -10 -10 -10 -9 0 -14 4 -10 9 3 5
0 13 -6 17 -8 4 -9 3 -5 -4 4 -6 -5 -18 -21 -27 -15 -9 -20 -14 -11 -11 9 2
19 -1 21 -8 5 -14 -20 -15 -41 -2 -6 4 -3 -8 8 -28 16 -25 18 -36 9 -42 -7 -4
-9 -3 -6 3 8 12 -22 47 -43 51 -10 1 -9 -2 4 -13 20 -15 33 -50 15 -39 -5 3
-12 -2 -15 -10 -3 -9 -11 -16 -16 -16 -7 0 -6 5 1 13 8 10 7 14 -2 14 -8 0
-13 -12 -13 -31 1 -24 -3 -30 -17 -28 -10 2 -16 -2 -15 -10 2 -7 -7 -14 -20
-16 -12 -2 -20 -7 -18 -11 3 -4 0 -13 -6 -21 -8 -12 -9 -12 -4 3 7 21 -9 23
-18 2 -3 -8 2 -19 12 -24 12 -7 7 -9 -21 -6 -20 2 -40 -1 -43 -7 -4 -6 -2 -8
3 -5 19 12 22 -21 4 -37 -14 -13 -20 -13 -30 -3 -11 9 -14 9 -18 -1 -3 -6 -9
-10 -14 -6 -16 10 -31 -6 -19 -21 8 -9 8 -15 0 -20 -6 -3 -8 -10 -6 -14 3 -4
0 -13 -5 -21 -6 -11 -8 -5 -4 18 3 19 1 32 -5 32 -6 0 -8 -4 -5 -10 3 -5 -1
-10 -9 -10 -8 0 -18 -4 -21 -10 -3 -6 1 -7 9 -4 9 3 16 1 16 -6 0 -6 -4 -9 -9
-5 -5 3 -12 1 -16 -5 -4 -6 -11 -8 -16 -5 -5 4 -9 0 -9 -7 0 -7 -8 -1 -17 12
-21 30 -43 54 -43 45 0 -3 -10 0 -22 7 -23 12 -29 14 -48 17 -5 0 -10 6 -10
12 0 8 5 8 15 -1 10 -9 15 -9 15 -1 0 6 -3 11 -7 12 -5 0 -17 2 -28 4 -10 2
-26 -2 -34 -8 -11 -9 -13 -9 -8 0 4 7 0 16 -10 22 -15 8 -16 12 -4 23 12 11
13 11 6 -1 -6 -10 -4 -12 4 -7 9 6 9 11 1 21 -7 8 -9 20 -5 27 4 7 1 6 -7 -3
-13 -16 -51 -23 -42 -7 3 5 10 6 15 3 5 -3 6 1 3 10 -5 12 -10 13 -20 4 -10
-8 -17 -7 -29 5 -9 9 -13 16 -8 16 5 0 9 10 10 21 2 18 0 19 -10 6 -9 -11 -18
-12 -32 -6 -19 9 -18 9 2 5 19 -3 22 0 21 19 -1 13 -6 21 -10 19 -4 -3 -8 2
-8 10 0 9 -5 16 -11 16 -7 0 -6 -9 4 -23 13 -20 13 -24 1 -24 -8 0 -12 3 -9 5
3 3 -1 12 -9 21 -8 9 -15 21 -15 26 -1 12 -24 14 -32 3 -3 -5 -11 4 -17 19
-11 26 -11 27 3 9 16 -21 21 -11 6 13 -5 8 -18 12 -30 8 -12 -3 -19 -1 -15 4
3 5 0 9 -6 9 -6 0 -10 10 -8 23 2 16 -2 22 -17 22 -14 0 -20 7 -21 24 -1 24
-22 44 -36 35 -4 -3 -8 0 -8 5 0 6 -5 11 -11 11 -8 0 -8 -5 1 -15 7 -8 17 -12
23 -8 6 4 7 1 2 -7 -6 -9 -4 -11 5 -5 9 6 11 4 5 -5 -5 -9 -4 -11 3 -6 8 5 10
1 5 -9 -5 -13 -7 -14 -14 -3 -5 7 -14 13 -21 13 -7 0 -14 6 -14 13 -1 6 -3 15
-4 20 -1 4 -2 10 -1 15 0 4 -6 7 -14 7 -8 0 -15 4 -15 10 0 5 6 7 13 4 8 -3
20 3 27 13 12 15 12 16 0 6 -19 -17 -30 -16 -30 1 0 8 -5 18 -11 21 -6 4 -10
1 -8 -6 5 -37 -2 -42 -20 -16 -13 20 -20 25 -24 15 -4 -7 -4 1 -1 17 4 20 3
26 -4 17 -7 -11 -10 -11 -15 2 -3 8 -1 18 5 22 7 4 8 3 4 -4 -5 -8 -2 -10 8
-6 9 3 16 10 16 14 0 10 -33 5 -53 -6 -9 -6 -9 -4 1 8 9 11 10 18 2 23 -6 3
-8 11 -4 16 3 5 0 8 -8 7 -7 -2 -12 3 -11 9 2 7 0 12 -5 12 -20 -3 -30 3 -35
21 -3 11 -1 20 5 20 5 0 6 5 2 11 -4 8 -9 8 -17 0 -6 -6 -16 -11 -22 -11 -5 0
-2 5 8 11 9 6 14 15 11 21 -4 7 -2 8 4 4 7 -4 12 -1 12 8 0 9 5 16 10 16 7 0
7 -6 0 -19 -7 -15 -7 -19 5 -17 8 1 18 6 22 11 4 4 3 5 -3 2 -8 -4 -11 3 -10
22 0 19 5 27 13 24 7 -3 11 -8 8 -12 -2 -4 3 -8 11 -8 9 0 11 4 5 10 -5 5 -7
17 -4 26 4 14 3 14 -6 1 -8 -11 -11 -12 -11 -2 0 7 -5 10 -12 6 -7 -4 -8 -3
-4 5 4 6 11 9 15 7 11 -7 52 24 46 34 -3 4 2 13 9 19 21 18 15 -13 -8 -38 -14
-15 -15 -24 -7 -38 10 -16 10 -15 8 7 -1 15 3 25 12 25 14 0 23 23 22 58 0 9
5 17 10 17 6 0 8 -4 5 -9 -3 -5 2 -15 11 -22 15 -12 16 -12 8 1 -13 22 -16 50
-6 50 6 0 13 -5 17 -12 4 -7 3 -8 -4 -4 -8 5 -10 2 -6 -8 3 -9 11 -16 17 -16
6 0 7 3 4 7 -4 3 1 15 10 26 10 11 13 18 8 14 -6 -3 -17 -1 -25 4 -11 7 -7 9
15 7 17 -1 35 1 42 5 18 11 4 37 -15 30 -14 -4 -15 -3 -2 5 10 8 18 8 27 0 18
-15 16 -3 -3 16 -8 9 -11 16 -5 16 6 0 20 -10 32 -22 23 -24 16 -5 -9 25 -8 9
-12 20 -9 24 4 3 7 1 7 -5 0 -6 10 -17 23 -23 20 -11 21 -11 9 4 -16 19 2 62
20 51 7 -5 9 -2 5 9 -3 9 -1 19 5 23 7 4 8 3 4 -4 -4 -7 -1 -12 6 -12 7 0 1
-11 -14 -25 -16 -13 -23 -27 -18 -30 6 -3 10 0 10 7 0 9 2 10 8 2 5 -9 11 -8
20 2 8 9 9 14 2 14 -6 0 -8 5 -5 10 4 6 11 8 16 4 5 -3 8 0 7 8 -2 8 5 12 17
10 16 -2 17 -1 5 7 -13 10 -13 11 0 12 8 1 18 1 22 0 5 0 7 5 5 12 -1 6 3 11
10 10 7 -2 10 7 7 23 -3 15 -1 23 5 20 12 -8 41 3 41 16 0 6 -6 6 -14 -1 -11
-9 -16 -9 -22 0 -5 8 -3 9 6 4 10 -6 12 -4 6 11 -4 10 -4 15 0 11 4 -4 17 1
28 10 20 17 20 17 7 0 -12 -15 -11 -17 9 -14 20 3 41 38 22 36 -4 -1 -14 -1
-22 0 -13 1 -13 3 0 10 8 6 18 8 22 5 4 -3 18 1 30 8 13 7 27 11 31 10 5 -1 6
2 2 8 -3 5 1 13 10 16 23 9 38 41 23 50 -7 4 -8 3 -4 -4 5 -8 2 -10 -9 -6 -19
8 -14 14 12 19 10 1 17 8 16 13 -2 7 4 9 14 5 9 -4 14 -2 10 3 -8 13 9 39 25
39 7 0 12 9 12 18 -1 10 1 16 4 13 3 -3 12 0 21 7 14 11 14 10 2 -6 -12 -15
-12 -17 3 -11 9 3 16 1 16 -5 0 -6 5 -11 11 -11 6 0 7 5 2 13 -13 21 -13 47 0
44 6 -1 10 5 9 13 -2 8 0 12 4 8 4 -4 14 -2 22 5 10 8 13 8 9 1 -4 -7 -1 -14
6 -17 10 -4 13 5 11 32 -1 20 0 30 3 24 7 -19 33 -16 33 4 0 9 3 14 6 10 4 -3
13 1 21 9 8 8 19 11 25 8 7 -4 7 0 0 13 -11 19 -3 43 14 46 5 1 8 7 6 12 -2 6
0 6 5 2 4 -5 8 -13 8 -18 0 -5 3 -9 8 -9 4 0 10 0 13 0 4 0 0 7 -7 16 -11 13
-10 17 4 26 10 5 15 13 13 17 -3 4 7 7 23 6 23 -1 27 2 25 21 -1 13 -5 29 -9
36 -3 7 0 5 8 -4 13 -16 61 -22 51 -7 -2 4 0 10 6 14 17 10 1 24 -22 20 -11
-3 -18 -1 -14 2 12 12 40 12 53 1 10 -8 12 -7 7 6 -5 13 -2 15 12 9 16 -6 17
-5 4 9 -12 12 -18 13 -30 4 -13 -10 -13 -9 -1 7 10 12 17 15 25 7 15 -15 30
-12 17 4 -9 11 -6 13 15 10 14 -1 23 0 20 3 -3 4 0 13 7 21 9 12 9 14 0 9 -26
-16 -38 57 -13 74 12 8 10 9 -7 4 -18 -5 -21 -2 -19 20 2 14 -1 25 -6 25 -5 0
-6 6 -2 13 6 9 4 9 -7 1 -17 -13 -59 -16 -59 -4 0 5 5 12 12 16 6 4 8 3 4 -4
-3 -5 0 -9 6 -8 17 2 21 21 6 22 -7 0 -22 -4 -33 -9 -17 -9 -18 -8 -7 5 10 13
10 18 1 24 -8 4 -9 3 -5 -4 4 -7 2 -12 -5 -12 -6 0 -9 8 -7 18 4 12 -1 18 -13
18 -10 0 -15 -4 -13 -8 3 -4 -6 -8 -20 -8 -18 0 -24 4 -20 14 8 22 -12 28 -27
8z m81 -32 c0 -5 -8 -10 -17 -10 -15 0 -16 2 -3 10 19 12 20 12 20 0z m10 -24
c0 -2 -8 -10 -17 -17 -16 -13 -17 -12 -4 4 13 16 21 21 21 13z m90 -36 c0 -5
-5 -10 -11 -10 -5 0 -7 5 -4 10 3 6 8 10 11 10 2 0 4 -4 4 -10z m-350 -74 c0
-3 -4 -8 -10 -11 -5 -3 -10 -1 -10 4 0 6 5 11 10 11 6 0 10 -2 10 -4z m-40
-40 c0 -3 -4 -8 -10 -11 -5 -3 -10 -1 -10 4 0 6 5 11 10 11 6 0 10 -2 10 -4z
m430 -12 c0 -8 -19 -13 -24 -6 -3 5 1 9 9 9 8 0 15 -2 15 -3z m-516 -76 c-4
-6 -10 -5 -15 3 -6 10 -9 11 -9 2 0 -7 -5 -13 -11 -13 -8 0 -8 4 1 14 13 16
44 10 34 -6z m436 -13 c0 -2 -10 -9 -22 -15 -22 -11 -22 -10 -4 4 21 17 26 19
26 11z m-70 -45 c0 -5 -8 -10 -17 -10 -15 0 -16 2 -3 10 19 12 20 12 20 0z
m-548 -107 c-6 -2 -9 -10 -6 -15 4 -7 2 -8 -5 -4 -13 9 -5 26 12 25 9 0 8 -2
-1 -6z m432 -11 c3 -5 -1 -9 -9 -9 -8 0 -12 4 -9 9 3 4 7 8 9 8 2 0 6 -4 9 -8z
m-47 -44 c-3 -8 -6 -5 -6 6 -1 11 2 17 5 13 3 -3 4 -12 1 -19z m-573 -160 c-3
-5 -10 -6 -15 -3 -5 4 -9 1 -9 -5 0 -6 -5 -8 -11 -4 -8 5 -8 8 0 14 16 9 41 8
35 -2z m346 -72 c0 -2 -7 -6 -15 -10 -8 -3 -15 -1 -15 4 0 6 7 10 15 10 8 0
15 -2 15 -4z m-40 -25 c0 -6 -4 -12 -8 -15 -5 -3 -9 1 -9 9 0 8 4 15 9 15 4 0
8 -4 8 -9z m-173 -126 c0 -8 -4 -12 -9 -9 -5 3 -6 10 -3 15 9 13 12 11 12 -6z
m33 -19 c0 -2 -17 -18 -38 -35 -26 -20 -39 -25 -39 -16 0 8 5 11 10 8 6 -4 8
0 4 10 -3 9 -1 19 5 23 7 4 8 3 4 -4 -4 -7 -1 -12 9 -12 10 0 13 5 9 12 -4 7
-3 8 4 4 7 -4 12 -2 12 3 0 6 5 11 10 11 6 0 10 -2 10 -4z m-537 -157 c4 -16
3 -18 -9 -8 -7 6 -11 15 -8 20 8 13 11 11 17 -12z m357 -33 c0 -11 -19 -15
-25 -6 -3 5 1 10 9 10 9 0 16 -2 16 -4z m787 -131 c0 -8 -4 -12 -9 -9 -5 3 -6
10 -3 15 9 13 12 11 12 -6z m-26 -28 c-13 -13 -26 -3 -16 12 3 6 11 8 17 5 6
-4 6 -10 -1 -17z m573 -43 c3 -8 2 -12 -4 -9 -6 3 -10 10 -10 16 0 14 7 11 14
-7z m-1844 -4 c0 -5 -5 -10 -11 -10 -5 0 -7 5 -4 10 3 6 8 10 11 10 2 0 4 -4
4 -10z m1328 -11 c-13 -8 -11 -10 14 -13 6 0 12 -9 14 -20 2 -17 1 -16 -20 3
-25 24 -31 52 -8 44 11 -5 11 -7 0 -14z m575 -46 c-5 -12 -7 -12 -14 -2 -4 7
-5 17 -3 21 3 5 -2 11 -10 14 -9 3 -16 11 -16 17 0 6 11 0 24 -12 14 -13 22
-30 19 -38z m-423 -23 c0 -5 -5 -10 -11 -10 -5 0 -7 5 -4 10 3 6 8 10 11 10 2
0 4 -4 4 -10z m-1161 -44 l22 -23 -21 -6 c-12 -3 -19 -3 -16 0 3 4 1 12 -5 20
-6 7 -8 13 -3 13 5 0 2 5 -6 10 -8 5 -10 10 -4 10 6 0 21 -11 33 -24z m1606
-86 c3 -6 -1 -7 -9 -4 -18 7 -21 14 -7 14 6 0 13 -4 16 -10z m-1 -31 c-2 -5
-14 -1 -24 9 -26 22 -25 24 5 10 13 -6 22 -15 19 -19z m-1864 7 c0 -9 -30 -14
-35 -6 -4 6 3 10 14 10 12 0 21 -2 21 -4z m1814 -35 c3 -5 -2 -15 -12 -22 -15
-12 -16 -12 -5 2 7 9 10 19 6 22 -3 4 -4 7 0 7 3 0 8 -4 11 -9z m-334 -45 c0
-3 -4 -8 -10 -11 -5 -3 -10 -1 -10 4 0 6 5 11 10 11 6 0 10 -2 10 -4z m-990
-61 c-7 -8 -17 -15 -23 -15 -6 0 -2 7 9 15 25 19 30 19 14 0z m885 -25 c3 -5
1 -10 -4 -10 -6 0 -11 5 -11 10 0 6 2 10 4 10 3 0 8 -4 11 -10z m276 -34 c5 3
9 1 9 -4 0 -11 -30 -25 -38 -17 -3 3 0 5 6 5 6 0 10 6 8 13 -1 6 -1 9 1 4 3
-4 9 -5 14 -1z m-1054 -32 c-3 -4 -1 -16 5 -28 10 -20 9 -20 -7 -4 -15 14 -14
38 2 38 4 0 3 -3 0 -6z m-283 -49 c-4 -8 -11 -12 -16 -9 -6 4 -5 10 3 15 19
12 19 11 13 -6z m18 -22 c-9 -3 -7 -10 9 -24 12 -10 26 -19 31 -19 4 0 8 -8 8
-17 0 -15 -1 -15 -13 2 -9 11 -19 15 -27 10 -8 -5 -11 -4 -7 2 4 6 0 16 -8 23
-16 13 -11 30 8 29 8 0 8 -2 -1 -6z m1108 -117 c0 -3 -4 -8 -10 -11 -5 -3 -10
-1 -10 4 0 6 5 11 10 11 6 0 10 -2 10 -4z m-45 -23 c-2 -10 -4 -19 -4 -21 -1
-2 -6 0 -11 3 -8 5 -7 11 1 21 15 18 18 18 14 -3z m-297 -28 c4 -5 -2 -5 -12
-1 -11 4 -22 2 -26 -4 -5 -7 -11 -6 -20 4 -11 14 -8 15 19 12 18 -2 35 -7 39
-11z m-243 -15 c3 -6 -1 -7 -9 -4 -18 7 -21 14 -7 14 6 0 13 -4 16 -10z m53
-24 c-1 -1 -12 -8 -23 -16 -18 -14 -19 -13 -8 1 10 12 10 18 0 28 -10 11 -8
11 11 1 13 -6 22 -13 20 -14z m-358 -10 c0 -3 -4 -8 -10 -11 -5 -3 -10 -1 -10
4 0 6 5 11 10 11 6 0 10 -2 10 -4z m70 -77 c0 -5 5 -7 12 -3 7 4 8 3 4 -5 -6
-8 -12 -9 -20 -2 -7 6 -17 7 -21 3 -5 -4 -5 -1 -1 6 9 15 26 16 26 1z m123
-103 c7 4 9 4 5 -1 -10 -11 32 -47 48 -41 8 3 10 -3 6 -17 -3 -12 -7 -16 -10
-9 -2 7 -9 9 -15 5 -7 -3 -9 -3 -5 2 7 7 -49 60 -63 60 -4 0 -11 4 -16 9 -5 5
-3 6 5 2 7 -4 12 -2 12 6 0 8 5 6 11 -5 6 -9 16 -14 22 -11z m151 -115 c3 -5
-1 -11 -9 -14 -9 -4 -12 -1 -8 9 6 16 10 17 17 5z"/>
<path d="M1616 2918 c3 -5 10 -6 15 -3 13 9 11 12 -6 12 -8 0 -12 -4 -9 -9z"/>
<path d="M1710 2829 c0 -5 5 -7 10 -4 6 3 10 8 10 11 0 2 -4 4 -10 4 -5 0 -10
-5 -10 -11z"/>
<path d="M1283 2788 c3 -9 1 -18 -6 -21 -8 -2 -8 -5 0 -10 15 -9 23 17 11 34
-8 11 -9 11 -5 -3z"/>
<path d="M1714 2759 c-8 -14 14 -19 25 -6 8 10 7 14 -5 14 -8 0 -17 -4 -20 -8z"/>
<path d="M1825 2538 c3 -20 -24 -33 -39 -18 -8 8 -6 9 9 4 17 -7 18 -6 5 8 -9
9 -18 12 -21 6 -3 -5 -10 -10 -15 -10 -22 -1 -34 -11 -34 -28 0 -22 -16 -35
-25 -20 -8 13 -22 5 -35 -20 -8 -16 -8 -18 5 -14 8 3 13 10 10 14 -3 5 -1 11
4 14 5 4 8 -1 7 -10 -1 -9 -10 -20 -19 -26 -19 -10 -41 -2 -32 12 3 5 1 11 -4
14 -5 4 -8 -2 -6 -11 1 -10 -5 -27 -14 -38 -16 -20 -16 -20 7 -1 12 11 22 15
22 10 0 -13 -39 -36 -50 -29 -9 6 -8 -14 3 -31 4 -7 -1 -18 -11 -25 -15 -12
-16 -12 -5 2 10 12 8 18 -8 33 -16 13 -24 15 -33 6 -6 -6 -7 -11 -1 -10 22 5
29 -1 15 -11 -13 -9 -12 -10 2 -5 12 3 15 1 11 -10 -6 -17 -29 -19 -37 -1 -3
6 -3 -1 -1 -16 3 -23 1 -26 -9 -18 -7 6 -15 8 -19 5 -8 -9 4 -35 13 -29 5 3
11 1 15 -4 3 -6 -4 -8 -15 -6 -12 2 -23 -2 -27 -10 -6 -18 -30 -20 -35 -3 -3
7 -7 3 -10 -9 -4 -17 -2 -20 11 -16 13 4 13 2 -2 -7 -10 -6 -14 -16 -10 -23 4
-7 0 -6 -10 2 -19 15 -23 26 -5 15 7 -4 8 -3 4 5 -6 9 -11 9 -23 -1 -9 -7 -17
-11 -19 -8 -1 3 -6 1 -11 -4 -4 -5 -4 -7 2 -3 6 3 19 -1 30 -9 10 -8 13 -14 6
-14 -7 0 -10 -4 -7 -8 3 -5 -1 -9 -9 -9 -18 0 -20 13 -2 20 6 3 7 6 1 6 -5 1
-19 -6 -30 -15 -10 -8 -14 -13 -8 -10 7 3 15 -1 18 -10 4 -12 2 -15 -9 -10 -8
3 -15 1 -15 -4 0 -6 -4 -10 -10 -10 -5 0 -7 7 -4 15 4 8 1 15 -5 15 -6 0 -10
-6 -9 -12 2 -7 -3 -12 -10 -10 -6 1 -11 -4 -10 -10 2 -7 -3 -12 -10 -10 -6 1
-11 -1 -11 -5 3 -21 -2 -33 -13 -27 -7 5 -8 3 -3 -6 6 -10 12 -7 27 11 14 18
17 20 11 5 -5 -15 -3 -17 8 -11 8 5 11 5 6 -1 -5 -5 -14 -9 -19 -9 -6 0 -13
-6 -16 -14 -3 -9 0 -11 8 -6 9 6 11 4 5 -4 -5 -9 -10 -10 -18 -2 -14 14 -37
14 -37 0 0 -5 6 -7 13 -3 7 5 7 1 -3 -12 -22 -29 -24 -30 -18 -13 4 9 2 22 -4
30 -8 11 -9 11 -5 -2 7 -20 -7 -42 -28 -45 -21 -3 -45 -23 -45 -39 0 -13 -32
-45 -45 -45 -5 0 -1 6 8 13 13 9 14 16 6 27 -9 12 -10 12 -5 -4 5 -13 2 -17
-8 -13 -9 4 -13 0 -11 -11 2 -9 4 -17 5 -17 1 0 3 -8 5 -17 2 -12 -2 -15 -13
-11 -10 4 -13 2 -8 -5 11 -18 0 -15 -20 6 -17 16 -18 16 -11 -1 5 -13 0 -20
-19 -27 -14 -6 -30 -7 -36 -4 -7 5 -8 2 -4 -5 5 -7 14 -10 21 -7 7 2 15 -1 18
-8 3 -8 -4 -12 -21 -12 -14 1 -27 -5 -29 -14 -4 -12 -3 -12 5 -2 7 11 10 11
15 -3 4 -9 3 -13 -3 -10 -5 3 -15 -3 -22 -15 -7 -11 -17 -20 -22 -20 -6 0 -5
5 2 12 15 15 15 28 1 28 -5 0 -8 -4 -5 -9 3 -5 -1 -14 -9 -21 -8 -7 -15 -18
-15 -24 0 -8 2 -8 8 0 5 8 11 7 22 -4 13 -14 12 -15 -4 -9 -13 5 -17 3 -13 -6
3 -8 -1 -14 -9 -14 -7 0 -11 4 -8 8 2 4 0 10 -6 14 -6 4 -7 11 -4 17 4 7 2 8
-5 4 -9 -6 -9 -11 0 -22 9 -11 9 -14 0 -14 -8 0 -10 -8 -6 -20 4 -11 3 -20 -2
-19 -20 3 -25 -2 -13 -16 14 -16 7 -45 -11 -45 -9 0 -9 4 0 14 15 18 -5 34
-22 17 -9 -9 -7 -11 8 -6 18 6 18 5 4 -7 -15 -12 -15 -15 0 -28 8 -8 17 -13
19 -12 2 2 7 0 10 -4 4 -4 2 -4 -4 -1 -6 4 -19 1 -28 -6 -17 -12 -16 -15 8
-44 14 -16 23 -33 20 -36 -3 -3 -2 -13 3 -21 6 -12 9 -5 9 24 0 33 -3 40 -15
35 -12 -5 -13 -3 -4 6 13 13 34 4 32 -14 -4 -33 2 -77 11 -77 5 0 6 8 3 17 -6
15 -5 16 9 3 13 -12 14 -16 2 -23 -14 -8 -8 -37 8 -37 6 0 4 8 -3 17 -12 15
-12 16 1 8 8 -6 18 -10 23 -10 12 0 3 -19 -11 -22 -22 -3 -26 -12 -6 -12 37
-1 54 -4 54 -11 0 -15 -14 -19 -27 -8 -7 6 -16 8 -20 4 -3 -3 -1 -6 6 -6 7 0
10 -4 6 -9 -6 -10 13 -8 50 4 18 6 18 5 3 -5 -10 -6 -15 -17 -11 -27 5 -12 3
-14 -7 -8 -9 5 -11 4 -6 -4 4 -6 12 -9 17 -6 5 4 12 -1 15 -9 3 -9 11 -16 16
-16 7 0 6 5 -1 13 -6 8 -7 18 -3 22 4 5 1 5 -7 0 -9 -5 -12 -4 -7 3 3 5 0 12
-6 15 -7 3 -3 4 9 4 12 -1 21 -4 21 -7 0 -3 1 -8 2 -12 1 -5 3 -14 4 -20 0 -7
6 -13 11 -14 6 0 21 -6 35 -12 17 -7 20 -11 8 -11 -9 -1 -20 -6 -24 -13 -5 -8
-2 -9 9 -5 9 3 19 1 23 -5 5 -7 2 -8 -7 -4 -8 4 -5 1 5 -8 10 -8 23 -13 29 -9
6 3 7 1 3 -5 -7 -12 4 -16 34 -13 13 2 13 1 0 -8 -8 -5 -17 -8 -21 -5 -4 2
-12 -2 -18 -10 -9 -11 -7 -13 11 -12 15 1 22 -4 20 -14 -1 -9 6 -6 18 9 21 25
26 21 11 -8 -6 -10 -6 -23 0 -32 6 -10 9 -10 9 -1 0 10 5 10 20 2 10 -6 17
-16 14 -24 -6 -17 23 -29 32 -14 5 7 2 8 -6 3 -9 -6 -11 -4 -5 5 6 9 4 11 -5
5 -9 -5 -11 -4 -6 4 6 8 12 9 20 2 8 -7 16 -7 23 0 6 6 10 5 10 -5 0 -8 -4
-13 -8 -11 -3 3 -9 -4 -12 -15 -5 -19 -4 -20 21 -2 15 9 34 17 42 16 8 -1 23
-2 34 -3 13 -1 16 -6 11 -18 -4 -13 -1 -12 15 5 11 12 25 22 30 22 6 0 10 5
10 10 0 6 -11 3 -24 -5 -13 -9 -27 -12 -30 -7 -8 13 3 22 20 15 9 -3 13 0 11
8 -2 8 -2 11 0 6 3 -4 8 -5 13 -2 5 3 16 -2 24 -11 9 -8 16 -11 16 -5 0 5 -8
18 -17 27 -17 17 -17 17 -1 11 17 -6 35 7 21 16 -5 2 -1 2 7 -1 31 -9 60 -10
55 -2 -3 5 -12 7 -19 4 -7 -3 -18 1 -24 9 -9 11 -8 14 3 14 8 0 11 -5 8 -10
-4 -6 -1 -7 6 -2 7 4 11 16 8 26 -4 16 -2 17 15 8 13 -7 18 -7 14 -1 -3 6 -3
12 1 15 5 2 3 2 -4 1 -7 -2 -15 2 -19 8 -4 7 -3 8 4 4 7 -4 12 -2 12 3 0 6 -5
11 -12 11 -6 0 -8 3 -5 6 4 4 12 2 19 -4 9 -7 19 -6 32 4 11 8 15 14 10 14 -6
0 -15 -5 -22 -12 -16 -16 -16 4 1 22 10 12 9 12 -5 1 -21 -15 -25 1 -5 18 10
8 17 7 26 -2 10 -9 11 -8 5 7 -6 15 -4 17 6 11 9 -5 11 -4 6 3 -5 9 -15 8 -37
-4 -17 -8 -33 -13 -37 -10 -3 3 0 6 6 6 9 0 9 5 0 19 -7 11 -15 18 -19 15 -4
-2 -6 7 -3 20 3 19 0 24 -13 21 -21 -3 -43 12 -43 29 0 6 5 4 10 -4 5 -8 10
-13 11 -10 5 32 7 53 3 43 -3 -7 -12 -13 -19 -13 -7 0 -16 -6 -19 -12 -3 -7
-3 2 0 20 3 23 1 31 -6 27 -6 -4 -9 -13 -7 -19 3 -7 1 -19 -5 -27 -8 -11 -9
-11 -5 3 6 17 -15 42 -26 31 -4 -3 -7 -1 -7 6 0 7 -3 10 -7 8 -12 -7 -53 11
-53 23 0 6 6 8 13 4 6 -4 9 -4 5 1 -4 4 -3 13 2 20 7 8 5 12 -5 12 -7 0 -14
-3 -13 -6 2 -18 -4 -22 -16 -12 -10 8 -16 9 -21 1 -4 -6 -1 -9 6 -8 7 2 14 -3
15 -9 1 -7 2 -18 3 -24 0 -5 5 -8 9 -5 4 2 14 0 22 -5 12 -7 10 -8 -7 -6 -25
4 -62 46 -56 64 3 8 -3 11 -17 8 -11 -2 -18 0 -15 5 3 5 -3 13 -12 19 -10 5
-15 13 -11 17 5 4 2 14 -4 22 -15 17 -20 44 -7 36 5 -3 9 3 9 13 0 12 3 14 8
6 4 -7 17 -11 29 -10 12 0 20 5 17 9 -3 4 -11 5 -18 2 -7 -3 -16 2 -20 12 -4
11 -2 15 8 11 8 -3 17 0 20 8 3 10 0 12 -12 9 -15 -5 -15 -4 -2 5 13 10 13 12
0 21 -9 6 -10 10 -3 10 6 0 15 -5 19 -11 5 -8 10 -6 16 5 8 14 12 15 26 4 16
-12 16 -11 2 7 -8 11 -19 23 -23 26 -5 3 -1 9 8 12 9 4 14 3 11 -2 -3 -5 1
-14 9 -21 13 -11 14 -10 10 2 -3 8 1 27 9 42 8 17 16 22 18 14 3 -7 -1 -17 -8
-23 -10 -7 -11 -14 -3 -25 9 -13 10 -12 5 3 -5 15 -2 17 17 12 12 -3 17 -3 12
2 -6 4 -10 19 -10 33 0 14 -4 29 -10 33 -6 5 -2 6 9 3 10 -4 26 -1 35 6 14 11
14 11 4 -2 -8 -10 -9 -21 -3 -30 7 -11 10 -12 10 -2 0 8 5 10 13 6 9 -5 9 -4
0 6 -6 7 -9 19 -6 26 3 8 -1 14 -8 15 -8 0 -4 4 8 9 16 7 21 14 16 27 -6 17
-6 17 10 1 20 -19 22 -29 6 -26 -6 2 -13 -5 -14 -16 -3 -16 0 -15 22 5 13 13
26 22 28 19 2 -3 7 -1 12 5 4 6 4 7 -1 3 -10 -9 -51 11 -42 20 12 11 36 10 29
-1 -3 -7 -3 -9 2 -5 4 4 15 2 24 -5 14 -10 14 -10 3 5 -14 18 -7 43 9 33 5 -4
17 -1 26 5 16 9 15 10 -4 5 -18 -5 -22 -3 -17 9 3 9 10 13 15 10 5 -3 6 2 3
10 -3 9 -10 13 -15 10 -15 -9 -10 3 8 17 10 8 14 9 10 2 -4 -6 -3 -14 3 -18 5
-3 10 -1 10 4 0 6 6 10 13 9 6 -2 11 3 9 10 -1 7 5 12 15 10 14 -2 17 3 15 20
-2 12 2 22 8 22 6 0 8 -5 4 -12 -4 -7 -3 -8 5 -4 9 6 9 11 0 23 -10 12 -10 16
1 23 8 5 18 6 23 3 4 -3 17 3 28 13 15 13 19 14 19 3 1 -8 7 -3 15 11 8 14 15
21 15 15 0 -5 5 -2 11 7 5 9 16 15 24 12 11 -5 14 1 11 24 -1 16 -6 35 -10 43
-4 8 -1 6 7 -4 9 -10 18 -18 22 -17 4 1 10 -2 13 -6 4 -4 0 -4 -8 1 -9 5 -12
5 -7 -1 5 -5 14 -9 20 -9 7 -1 11 -7 9 -14 -1 -7 2 -10 8 -6 6 4 3 16 -8 33
-10 15 -12 23 -4 18 7 -4 18 -3 25 3 10 7 13 4 14 -12 2 -18 0 -19 -8 -7 -9
13 -10 13 -6 0 2 -9 13 -14 25 -12 17 3 20 -1 15 -15 -3 -10 -3 -15 2 -11 4 4
14 0 22 -8 17 -17 40 -13 35 5 -1 7 2 10 8 6 7 -4 6 -13 -1 -27 -10 -18 -9
-20 5 -15 10 4 15 3 11 -3 -3 -6 1 -10 9 -10 9 0 16 -4 16 -10 0 -5 -6 -7 -14
-4 -8 3 -17 1 -21 -5 -3 -7 0 -8 9 -5 9 3 16 2 16 -4 0 -6 -5 -12 -12 -14 -9
-3 -9 -6 0 -12 7 -4 12 -2 12 4 0 6 5 8 12 4 6 -4 8 -3 4 4 -3 6 -2 13 3 16 6
4 8 -7 6 -24 -3 -24 -2 -28 9 -18 7 7 12 23 10 35 -1 13 1 21 5 18 4 -2 7 -14
6 -27 -3 -26 13 -51 26 -42 5 3 9 0 9 -5 0 -6 -4 -11 -10 -11 -5 0 -10 -4 -10
-8 0 -5 7 -9 15 -9 8 0 15 4 15 9 0 4 5 8 11 8 8 0 8 -5 -1 -15 -7 -8 -16 -12
-21 -9 -17 10 -9 -4 20 -35 20 -22 32 -28 37 -20 5 8 3 9 -6 4 -9 -5 -11 -4
-6 3 4 7 3 12 -3 12 -6 0 -8 8 -5 18 5 13 4 14 -4 3 -6 -8 -12 -9 -16 -3 -3 5
1 13 9 16 11 4 19 -3 27 -22 16 -38 16 -46 -2 -54 -13 -6 -12 -7 2 -7 9 -1 22
7 27 17 14 24 14 6 -1 -21 -10 -20 -10 -21 6 -7 16 13 20 12 33 -5 8 -11 19
-19 25 -17 6 2 5 -5 -3 -14 -12 -16 -12 -17 2 -12 9 4 16 1 16 -7 0 -7 -7 -11
-16 -9 -9 3 -6 -1 7 -7 12 -7 22 -16 22 -21 0 -5 -4 -7 -8 -4 -5 3 -9 -1 -9
-9 0 -8 4 -12 8 -9 5 3 16 -4 25 -15 9 -10 24 -17 32 -14 11 5 13 1 7 -15 -4
-14 -2 -22 5 -22 6 0 8 5 5 10 -3 6 1 10 9 10 10 0 13 -6 9 -15 -3 -9 2 -24
11 -34 9 -10 13 -20 10 -24 -3 -3 1 -4 10 -3 8 1 19 6 23 11 4 4 2 5 -6 0 -10
-6 -12 -4 -6 5 5 8 4 11 -3 6 -6 -3 -13 -2 -16 3 -3 5 3 11 14 14 11 3 18 1
15 -3 -3 -5 3 -13 12 -19 11 -6 13 -11 5 -11 -7 0 -10 -4 -7 -10 3 -5 0 -10
-7 -10 -10 0 -10 -2 1 -9 8 -5 20 -7 28 -4 7 3 13 1 13 -5 0 -6 -5 -12 -12
-14 -7 -3 -5 -7 6 -11 9 -4 15 -3 12 2 -3 5 1 11 9 14 20 8 57 -41 49 -66 -4
-13 -3 -17 6 -12 8 5 8 1 -1 -13 -7 -12 -18 -20 -23 -19 -6 1 -11 -8 -12 -20
-1 -12 3 -20 7 -17 5 3 17 0 26 -6 17 -10 16 -10 -2 -8 -14 2 -20 -3 -21 -18
-2 -29 -13 -46 -26 -38 -7 5 -5 11 6 19 14 11 15 14 1 25 -13 11 -14 10 -9 -5
5 -11 4 -16 -3 -12 -12 8 -13 -24 -1 -40 7 -8 3 -10 -11 -6 -20 5 -27 -9 -22
-39 0 -5 -4 -8 -9 -8 -6 0 -8 11 -6 24 4 20 1 23 -12 19 -9 -4 -11 -8 -5 -10
16 -6 5 -33 -12 -33 -8 0 -17 -5 -21 -12 -4 -7 -3 -8 4 -4 7 4 12 4 13 -1 0
-4 2 -16 4 -26 2 -9 -1 -15 -6 -11 -5 3 -7 10 -4 15 9 14 -12 11 -45 -6 -30
-16 -41 -29 -16 -19 13 5 31 -24 21 -34 -3 -3 -5 0 -5 6 0 13 -64 11 -77 -2
-5 -4 -3 -6 2 -4 6 2 11 -2 13 -7 1 -6 -2 -11 -8 -11 -5 -1 -15 -2 -21 -3 -5
0 -7 -6 -3 -12 4 -8 9 -7 15 2 7 11 9 11 9 -1 0 -13 1 -13 11 0 9 13 10 13 6
0 -2 -8 -10 -15 -18 -15 -8 0 -13 -9 -11 -20 2 -12 0 -16 -5 -9 -4 7 -19 11
-33 10 -18 -1 -25 -7 -25 -21 0 -14 -6 -19 -20 -17 -15 2 -17 1 -6 -6 11 -8
11 -11 0 -16 -8 -3 -4 -3 8 -1 12 3 24 2 27 -3 5 -8 -7 -12 -46 -13 -10 0 -18
-5 -18 -10 0 -6 5 -7 11 -3 7 4 10 1 7 -7 -3 -8 -10 -14 -16 -14 -5 0 -14 -4
-18 -8 -12 -11 -14 -37 -3 -37 5 0 9 -6 9 -12 -1 -7 -10 -2 -20 11 -11 13 -20
18 -20 12 0 -7 -4 -9 -10 -6 -6 3 -7 -1 -3 -10 5 -14 8 -14 15 -3 8 10 9 10 5
-2 -2 -8 -12 -13 -22 -12 -16 3 -17 2 -6 -12 16 -19 10 -28 -21 -30 -14 -1
-23 -7 -22 -17 1 -9 -5 -16 -13 -16 -8 0 -12 6 -8 16 5 13 4 13 -6 4 -10 -10
-9 -16 2 -29 12 -15 12 -17 0 -9 -11 6 -13 4 -8 -9 6 -14 3 -17 -9 -12 -14 5
-15 4 -5 -8 10 -12 9 -14 -8 -9 -13 3 -23 -2 -30 -16 -7 -12 -16 -21 -22 -21
-6 0 -7 5 -3 12 4 7 3 8 -5 4 -9 -6 -9 -11 0 -22 10 -12 8 -18 -7 -29 -10 -8
-23 -15 -28 -15 -4 0 -6 -6 -3 -14 4 -10 0 -12 -14 -9 -13 4 -28 -2 -40 -16
-11 -11 -16 -21 -11 -21 5 0 15 7 22 15 7 8 17 15 23 15 5 0 0 -8 -11 -19 -12
-10 -19 -20 -17 -23 3 -2 -5 -4 -17 -4 -11 1 -23 -6 -25 -14 -4 -13 -3 -13 6
0 8 12 10 11 8 -7 -1 -16 -5 -19 -13 -12 -8 7 -14 6 -19 -1 -3 -5 -1 -10 6
-10 7 0 10 -3 6 -6 -3 -3 -11 -3 -17 1 -8 5 -8 10 0 20 8 9 8 15 0 20 -5 3
-10 5 -11 3 0 -2 -2 -14 -5 -28 -7 -39 -12 -50 -25 -50 -8 0 -8 4 1 15 7 9 10
18 6 22 -3 3 -6 1 -6 -6 0 -7 -5 -9 -10 -6 -6 4 -9 1 -8 -7 2 -7 -2 -12 -9
-11 -6 1 -10 -8 -9 -22 2 -13 -3 -26 -11 -29 -8 -3 -11 -11 -7 -17 4 -7 -1 -7
-16 1 -15 8 -20 8 -16 1 4 -6 2 -11 -3 -11 -6 0 -11 -5 -11 -11 0 -8 4 -8 14
0 11 9 16 9 22 0 4 -7 3 -9 -4 -5 -6 3 -14 1 -17 -5 -4 -5 -14 -8 -22 -4 -13
4 -14 3 -3 -10 11 -13 10 -14 -3 -10 -8 4 -18 1 -22 -4 -3 -6 -11 -8 -17 -5
-7 4 -8 2 -4 -5 6 -9 11 -9 24 1 10 8 13 8 9 1 -4 -6 -1 -14 5 -17 7 -3 4 -4
-7 -3 -14 1 -19 -3 -17 -15 1 -9 -2 -19 -8 -23 -5 -3 -7 0 -5 7 3 8 -2 22 -10
33 -16 19 -16 19 -6 -2 8 -15 8 -24 1 -28 -6 -4 -8 -10 -5 -15 9 -14 -35 -23
-50 -10 -10 8 -13 8 -11 -2 1 -7 5 -19 9 -25 5 -7 4 -13 0 -13 -5 0 -15 6 -23
13 -8 6 -6 2 5 -11 13 -16 21 -19 26 -10 4 7 5 16 3 20 -3 4 -1 8 5 8 16 0 22
-18 9 -23 -10 -3 -8 -10 5 -25 14 -15 15 -22 6 -28 -7 -4 -10 -3 -5 4 3 6 1
14 -6 19 -21 12 -48 14 -48 2 0 -5 5 -7 10 -4 6 3 10 1 10 -5 0 -6 4 -9 8 -6
5 3 9 -1 9 -9 0 -11 -5 -12 -20 -3 -14 7 -18 7 -12 -1 4 -7 1 -18 -5 -26 -9
-11 -9 -15 -1 -15 6 0 11 4 11 9 0 6 9 9 19 8 11 0 19 -6 18 -12 -1 -5 3 -9 9
-8 7 1 11 -9 10 -27 -1 -16 1 -27 5 -24 4 2 13 -4 19 -13 11 -17 11 -17 6 0
-5 15 -2 17 15 12 16 -5 20 -4 15 6 -4 8 4 1 17 -15 14 -16 24 -34 23 -40 -2
-6 -1 -8 1 -3 3 4 9 7 14 7 6 0 7 -6 3 -12 -6 -10 -5 -10 8 -1 8 7 19 9 23 5
5 -4 5 -1 1 6 -4 7 -1 12 9 12 10 0 13 -5 9 -12 -4 -6 -3 -8 4 -4 5 3 12 1 14
-6 3 -7 7 -5 11 6 4 9 3 15 -2 12 -4 -3 -17 4 -27 17 -16 19 -17 20 -1 8 9 -8
21 -11 24 -7 4 4 1 12 -7 17 -12 9 -12 10 3 5 10 -3 21 -6 23 -6 3 0 2 -5 -1
-10 -3 -6 -1 -10 4 -10 15 0 14 11 -4 30 -13 14 -13 17 0 17 8 0 12 -4 10 -8
-3 -3 4 -9 15 -12 11 -3 23 0 27 5 3 6 2 8 -3 5 -6 -3 -16 3 -22 14 -12 18
-11 19 6 10 23 -12 47 2 39 23 -3 8 -1 18 5 22 7 4 6 10 -3 16 -11 8 -10 9 4
4 9 -3 17 -1 17 5 0 6 5 7 10 4 6 -3 10 -1 10 4 0 6 4 11 10 11 5 0 7 -7 4
-15 -4 -10 0 -15 12 -15 16 0 17 2 4 10 -13 8 -8 14 11 12 3 -1 6 4 7 11 1 14
10 51 12 55 2 1 3 6 4 11 0 5 5 13 10 18 5 4 6 3 3 -3 -4 -7 0 -15 9 -18 13
-5 15 -1 11 21 -4 16 -4 22 -1 15 3 -6 11 -9 16 -6 6 4 9 3 6 -2 -3 -5 -2 -18
2 -29 6 -14 8 -8 6 20 -1 22 -6 47 -11 55 -7 12 -6 13 7 3 8 -7 19 -9 23 -5 5
4 5 2 2 -4 -3 -6 0 -11 7 -11 8 0 11 8 9 17 -4 14 1 17 21 15 14 -2 24 1 20 6
-3 5 -9 7 -14 4 -5 -3 -11 -1 -15 4 -6 10 27 7 45 -4 6 -4 10 -3 9 2 -4 14 24
63 32 57 5 -3 6 2 3 10 -3 9 -10 13 -15 10 -15 -9 -10 3 8 17 9 8 14 9 10 3
-4 -7 0 -17 8 -24 13 -11 14 -10 8 6 -6 16 -4 17 8 7 13 -10 15 -10 14 5 0 9
-5 24 -10 31 -5 9 -2 18 8 26 9 7 14 15 10 18 -3 4 5 4 17 2 13 -2 30 0 39 6
14 9 14 10 -1 5 -10 -3 -18 -1 -18 3 0 14 27 20 38 9 12 -12 11 9 -1 29 -5 7
1 16 13 23 19 10 24 7 21 -13 -1 -5 3 -6 9 -2 6 3 8 10 5 15 -3 4 2 11 10 14
8 3 15 9 14 13 -4 21 2 33 13 27 7 -5 8 -3 3 6 -6 10 -11 9 -21 -4 -6 -9 -15
-13 -18 -8 -3 6 1 13 10 16 8 3 13 10 9 15 -3 5 0 13 6 17 7 4 9 3 5 -4 -3 -5
0 -12 6 -14 12 -4 73 50 66 58 -5 5 -34 -21 -46 -41 -11 -18 -12 -17 -9 10 3
22 9 29 22 27 9 -2 14 1 11 7 -4 6 4 8 21 5 l28 -4 -25 16 c-15 9 -17 13 -6
10 14 -5 17 -2 12 9 -3 9 -2 13 4 10 6 -3 10 -2 10 4 0 5 -5 11 -12 13 -7 3
-5 7 6 11 9 4 15 3 12 -2 -3 -5 1 -12 10 -15 9 -3 12 -2 9 5 -4 5 -1 17 7 26
11 15 11 16 -7 9 -17 -6 -17 -4 4 15 13 13 37 23 53 24 16 1 34 7 41 14 10 11
8 11 -10 2 -18 -9 -23 -9 -23 1 0 10 -2 10 -9 -1 -5 -7 -11 -9 -14 -5 -3 5 1
15 9 22 8 7 14 8 14 2 0 -5 4 -10 9 -10 4 0 7 12 5 26 -1 14 0 23 3 20 8 -8
44 14 38 23 -2 5 2 14 10 21 8 7 12 17 8 23 -3 5 -1 7 5 3 6 -3 13 -2 17 3 3
6 12 8 20 5 8 -4 12 -11 8 -17 -3 -6 -1 -7 6 -3 9 6 9 11 -1 24 -11 14 -10 15
6 9 15 -6 17 -5 8 6 -18 22 -1 29 22 10 12 -10 15 -11 9 -3 -15 16 -17 34 -4
25 6 -3 8 4 6 16 -3 15 0 19 11 15 8 -3 12 -2 9 3 -3 5 -1 12 5 16 5 3 10 1
10 -6 0 -18 11 -4 14 18 2 10 11 17 20 16 10 0 14 2 11 5 -12 12 -53 9 -48 -3
2 -7 -3 -18 -12 -25 -8 -7 -15 -9 -15 -5 0 4 -8 1 -17 -6 -16 -13 -17 -12 -4
3 7 10 17 15 22 12 5 -3 10 0 10 5 1 6 2 17 3 24 1 12 5 13 54 16 20 1 23 4
12 10 -8 6 -18 7 -24 4 -5 -3 -6 -1 -2 6 4 6 12 8 18 5 6 -4 8 1 4 14 -4 11
-2 23 3 27 7 4 8 -1 4 -11 -4 -12 -3 -15 5 -10 7 4 10 2 9 -6 -2 -7 -2 -10 0
-5 3 4 10 4 15 1 7 -4 8 -2 4 4 -11 19 -16 53 -6 47 5 -3 14 4 20 15 6 11 8
20 4 20 -3 0 -1 6 5 13 6 8 7 18 3 22 -4 5 -1 5 6 1 10 -6 10 -11 2 -21 -9
-11 -7 -14 7 -12 11 0 19 9 19 18 0 10 -4 15 -8 13 -4 -3 -8 -1 -8 5 0 5 8 15
18 20 22 13 7 14 -17 2 -13 -7 -18 -6 -18 4 0 8 3 14 6 13 18 -2 31 3 31 12 0
5 -8 6 -17 3 -16 -6 -17 -5 -3 12 9 11 10 16 3 11 -9 -5 -13 0 -13 18 0 17 -8
28 -30 38 -17 7 -28 18 -26 25 3 7 1 15 -5 19 -6 3 -8 13 -5 21 4 8 1 11 -5 8
-6 -4 -8 -13 -5 -21 3 -8 0 -11 -9 -8 -16 6 -16 25 0 36 7 5 7 8 0 9 -5 0 -18
2 -28 4 -9 2 -15 -1 -11 -6 3 -5 10 -7 15 -4 5 4 6 -2 2 -11 -4 -11 -8 -13
-11 -6 -2 7 -8 10 -13 6 -5 -3 -9 -2 -8 3 3 19 -2 33 -12 33 -5 0 -7 -4 -4
-10 4 -6 -1 -7 -11 -3 -16 6 -16 8 4 16 25 11 36 34 16 34 -7 0 -11 -4 -8 -9
3 -4 -2 -8 -10 -8 -17 0 -17 20 -1 32 6 5 5 8 -3 8 -7 0 -10 5 -6 12 4 7 3 8
-4 4 -7 -4 -12 -2 -12 5 0 7 -3 9 -6 6 -4 -4 -1 -14 7 -24 12 -15 12 -16 -4
-10 -10 4 -21 7 -23 7 -3 0 -2 5 2 11 4 8 -1 9 -17 5 l-24 -7 24 14 c23 14 23
14 2 20 -11 3 -19 1 -15 -4 3 -5 0 -9 -6 -9 -7 0 -9 7 -6 16 3 9 6 17 6 20 0
2 8 1 18 -2 13 -4 14 -4 4 4 -8 5 -31 9 -51 8 -30 -2 -37 2 -39 18 0 11 6 25
15 31 14 11 14 12 -1 12 -9 0 -16 -4 -16 -9 0 -4 -5 -8 -10 -8 -13 0 -9 32 5
43 6 5 -1 5 -15 1 -22 -6 -23 -5 -11 10 12 14 12 16 -3 10 -10 -4 -15 -13 -12
-20 3 -8 1 -14 -4 -14 -6 0 -10 7 -10 15 0 8 -5 15 -11 15 -6 0 -9 9 -6 20 3
11 1 18 -3 15 -5 -3 -11 -1 -15 5 -3 5 -12 10 -18 10 -7 0 -4 -5 6 -11 9 -5
17 -15 17 -20 0 -6 -7 -3 -16 5 -8 9 -21 16 -27 16 -9 0 -9 2 0 8 8 5 8 12 -2
25 -8 12 -15 14 -20 8 -3 -6 -1 -11 6 -11 7 0 9 -3 6 -7 -10 -9 -48 28 -40 39
3 6 2 13 -3 17 -5 3 -14 15 -20 26 -7 11 -19 19 -29 18 -10 0 -14 4 -11 12 3
9 -2 12 -15 10 -11 -2 -17 0 -14 6 4 5 -1 12 -9 15 -9 3 -16 12 -16 20 0 8 -5
14 -11 14 -5 0 -7 -6 -3 -12 4 -7 -6 0 -23 15 -22 21 -29 35 -26 55 1 15 0 21
-3 15 -10 -22 -21 -14 -19 11 3 21 0 23 -26 19 -29 -4 -34 4 -32 55 1 7 -1 11
-5 8 -3 -3 -11 2 -18 12 -12 16 -12 16 -11 -2 1 -10 -5 -21 -13 -23 -10 -3
-11 -2 -3 4 8 6 8 13 -2 26 -8 12 -15 14 -20 8 -3 -6 -11 -11 -17 -11 -7 0 -7
5 1 14 9 11 8 15 -5 20 -9 4 -14 12 -10 22 3 8 2 13 -3 10 -5 -3 -14 1 -21 9
-7 8 -16 12 -21 9 -5 -3 -9 -1 -9 5 0 5 5 11 12 13 7 3 4 7 -7 12 -11 4 -16 4
-12 0 4 -4 2 -13 -4 -21 -11 -12 -2 -18 23 -14 4 0 16 -12 27 -28 20 -27 20
-29 3 -42 -14 -11 -15 -11 -5 0 9 11 8 19 -4 37 -8 13 -19 21 -25 18 -12 -7
-39 16 -32 27 3 5 -1 9 -8 9 -10 0 -9 3 2 11 13 9 12 10 -2 5 -10 -3 -20 -1
-23 5 -4 5 -10 7 -15 4 -5 -3 -10 0 -13 7 -2 7 -3 5 -2 -4z m-52 -22 c4 -10 1
-13 -9 -9 -7 3 -14 -1 -14 -8 0 -7 -3 -9 -6 -6 -4 4 -1 13 6 22 15 19 17 19
23 1z m80 1 c3 -7 -3 -13 -14 -14 -15 -1 -16 1 -6 12 15 18 14 18 20 2z m152
-117 c-3 -5 -12 -10 -18 -10 -7 0 -6 4 3 10 19 12 23 12 15 0z m55 -45 c0 -5
-5 -3 -10 5 -5 8 -10 20 -10 25 0 6 5 3 10 -5 5 -8 10 -19 10 -25z m56 -37 c4
-7 3 -8 -4 -4 -7 4 -12 2 -12 -5 0 -7 -3 -10 -6 -6 -6 5 3 27 11 27 2 0 7 -5
11 -12z m-321 -116 c2 -12 1 -21 -3 -20 -4 1 -17 -3 -28 -10 -12 -6 -25 -8
-29 -4 -5 4 -5 -2 -1 -13 4 -11 4 -16 0 -12 -4 4 -16 0 -26 -10 -10 -9 -18
-13 -18 -10 0 4 0 9 0 12 0 3 3 5 6 4 4 0 15 12 25 28 10 15 19 23 19 16 0 -7
7 -10 16 -6 9 3 12 9 7 12 -4 3 -9 13 -11 21 -2 12 1 11 11 -2 16 -20 28 -14
20 10 -4 10 -3 14 1 11 4 -4 8 -16 11 -27z m166 -1 c-8 -6 -10 -14 -5 -22 6
-12 5 -12 -9 0 -23 18 -21 26 5 28 16 2 19 0 9 -6z m333 -60 c3 -5 -1 -11 -9
-14 -9 -4 -12 -1 -8 9 6 16 10 17 17 5z m-948 -27 c2 -12 -1 -13 -12 -3 -7 6
-11 16 -8 21 7 11 17 3 20 -18z m958 -20 c3 -8 2 -12 -4 -9 -6 3 -10 10 -10
16 0 14 7 11 14 -7z m-698 -54 c0 -12 -4 -16 -9 -11 -5 5 -6 14 -3 20 10 15
12 14 12 -9z m-316 -4 c0 -3 -4 -8 -10 -11 -5 -3 -10 -1 -10 4 0 6 5 11 10 11
6 0 10 -2 10 -4z m-74 -38 c4 -7 4 -10 -1 -6 -4 4 -16 -3 -26 -15 -15 -19 -17
-20 -15 -4 1 10 9 23 17 28 18 11 17 11 25 -3z m313 -5 c-3 -20 2 -26 11 -13
5 8 10 10 10 4 0 -6 -7 -17 -16 -24 -12 -11 -15 -11 -12 1 2 8 -3 13 -11 11
-12 -3 -12 0 -1 12 14 17 21 20 19 9z m1034 -128 c-3 -9 -8 -14 -10 -11 -3 3
-2 9 2 15 9 16 15 13 8 -4z m-256 -49 c-1 -6 4 -10 11 -8 10 2 10 -2 0 -18 -8
-13 -15 -16 -19 -8 -4 7 -5 16 -2 22 4 5 -1 7 -10 3 -10 -4 -14 -2 -11 7 6 15
34 17 31 2z m73 -86 c-6 -11 -13 -20 -16 -20 -2 0 0 9 6 20 6 11 13 20 16 20
2 0 0 -9 -6 -20z m-1433 -43 c0 -12 -1 -16 -4 -9 -3 6 -9 9 -14 6 -6 -3 -5
-11 2 -20 18 -22 4 -16 -17 7 -14 15 -15 20 -4 17 9 -2 14 4 14 14 -1 9 4 14
10 12 7 -3 12 -15 13 -27z m1818 -55 c-3 -3 -11 0 -18 7 -9 10 -8 11 6 5 10
-3 15 -9 12 -12z m50 -21 c-6 -5 -25 10 -25 20 0 5 6 4 14 -3 8 -7 12 -15 11
-17z m-1925 -36 c0 -8 -2 -15 -4 -15 -2 0 -6 7 -10 15 -3 8 -1 15 4 15 6 0 10
-7 10 -15z m1650 -60 c-5 -7 -7 -14 -4 -18 3 -3 -2 -4 -13 -2 -10 2 -21 4 -25
4 -5 1 -8 6 -8 12 0 5 4 8 9 4 5 -3 12 -2 15 3 3 5 12 9 20 9 11 0 13 -4 6
-12z m-1113 -67 c-3 -8 -6 -5 -6 6 -1 11 2 17 5 13 3 -3 4 -12 1 -19z m1243
-182 c0 -3 -4 -8 -10 -11 -5 -3 -10 -1 -10 4 0 6 5 11 10 11 6 0 10 -2 10 -4z
m-365 -25 c-2 -9 -4 -20 -4 -25 -1 -14 -11 -1 -15 21 -3 11 1 20 9 20 7 0 11
-7 10 -16z m-1095 -41 c0 -5 -2 -10 -4 -10 -3 0 -8 5 -11 10 -3 6 -1 10 4 10
6 0 11 -4 11 -10z m53 -20 c-3 -12 -8 -19 -11 -16 -5 6 5 36 12 36 2 0 2 -9
-1 -20z m947 -15 c0 -8 0 -17 0 -20 0 -16 -14 -6 -16 13 -2 12 1 22 6 22 6 0
10 -7 10 -15z m-66 -112 c-9 -7 -21 -10 -26 -7 -14 9 -1 20 22 20 20 0 20 -1
4 -13z m-184 -207 c0 -2 -7 -7 -16 -10 -8 -3 -12 -2 -9 4 6 10 25 14 25 6z
m335 -46 c3 -5 3 -10 -2 -11 -4 0 -16 -2 -25 -4 -10 -2 -21 2 -25 7 -3 7 -1 8
5 4 7 -4 12 -2 12 3 0 14 27 14 35 1z m-74 -33 c-10 -9 -11 -8 -5 6 3 10 9 15
12 12 3 -3 0 -11 -7 -18z m13 -25 c3 -5 -1 -9 -9 -9 -8 0 -15 4 -15 9 0 4 4 8
9 8 6 0 12 -4 15 -8z m-528 -137 c1 -8 -1 -15 -6 -15 -10 0 -20 26 -13 34 8 8
16 -1 19 -19z m374 -45 c-6 -12 -14 -19 -17 -16 -3 3 0 12 6 20 7 8 9 21 5 28
-5 10 -4 10 5 2 10 -9 10 -17 1 -34z m-520 -134 c0 -2 -8 -10 -17 -17 -16 -13
-17 -12 -4 4 13 16 21 21 21 13z m326 -41 c-1 -8 -5 -17 -8 -21 -5 -4 -4 16 1
34 3 9 9 -1 7 -13z m-86 -101 c0 -8 -19 -13 -24 -6 -3 5 1 9 9 9 8 0 15 -2 15
-3z m-230 -29 c0 -2 -6 -5 -13 -8 -8 -3 -14 1 -14 8 0 7 6 11 14 8 7 -3 13 -6
13 -8z m94 -14 c-8 -9 -43 -11 -48 -3 -2 4 9 7 25 7 15 1 26 -1 23 -4z m-1
-38 c-4 -9 -10 -10 -24 -2 -24 13 -24 14 5 14 14 0 22 -5 19 -12z"/>
<path d="M1534 2529 c-3 -6 -2 -15 3 -20 5 -5 9 -1 10 11 2 22 -2 25 -13 9z"/>
<path d="M985 2499 c-4 -6 -5 -12 -2 -15 2 -3 7 2 10 11 7 17 1 20 -8 4z"/>
<path d="M1711 2494 c0 -11 3 -14 6 -6 3 7 2 16 -1 19 -3 4 -6 -2 -5 -13z"/>
<path d="M1480 2480 c-13 -8 -12 -10 3 -10 9 0 17 5 17 10 0 12 -1 12 -20 0z"/>
<path d="M1646 2478 c3 -5 10 -6 15 -3 13 9 11 12 -6 12 -8 0 -12 -4 -9 -9z"/>
<path d="M955 2461 c-6 -11 9 -23 19 -14 9 9 7 23 -3 23 -6 0 -12 -4 -16 -9z"/>
<path d="M1590 2420 c-9 -6 -10 -10 -3 -10 6 0 15 5 18 10 8 12 4 12 -15 0z"/>
<path d="M920 2410 c-9 -6 -10 -10 -3 -10 6 0 15 5 18 10 8 12 4 12 -15 0z"/>
<path d="M1430 2399 c0 -5 5 -7 10 -4 6 3 10 8 10 11 0 2 -4 4 -10 4 -5 0 -10
-5 -10 -11z"/>
<path d="M890 2380 c0 -5 5 -10 10 -10 6 0 10 5 10 10 0 6 -4 10 -10 10 -5 0
-10 -4 -10 -10z"/>
<path d="M1390 2379 c0 -5 5 -7 10 -4 6 3 10 8 10 11 0 2 -4 4 -10 4 -5 0 -10
-5 -10 -11z"/>
<path d="M867 2352 c4 -9 2 -13 -4 -9 -16 10 -39 -21 -26 -34 8 -8 13 -7 18 2
6 8 4 10 -5 4 -8 -5 -11 -3 -8 5 2 7 12 14 22 16 29 4 40 21 17 27 -15 3 -18
1 -14 -11z"/>
<path d="M1340 2339 c-7 -11 -9 -24 -5 -27 3 -3 8 4 12 16 5 19 8 21 22 10 14
-12 14 -11 2 5 -17 22 -18 21 -31 -4z"/>
<path d="M1265 2280 c-4 -6 -10 -8 -15 -5 -4 3 -10 -1 -13 -9 -6 -14 21 -32
31 -21 3 3 0 5 -7 5 -7 0 -10 4 -7 9 3 5 14 8 24 6 9 -1 11 0 4 2 -7 3 -10 9
-7 14 4 5 4 9 1 9 -3 0 -8 -5 -11 -10z"/>
<path d="M1480 2280 c-9 -6 -10 -10 -3 -10 6 0 15 5 18 10 8 12 4 12 -15 0z"/>
<path d="M2165 2250 c10 -11 22 -17 27 -13 6 3 21 -7 33 -23 20 -25 26 -27 37
-15 11 12 10 13 -4 8 -19 -7 -43 24 -30 38 4 5 2 5 -5 2 -6 -4 -18 0 -26 8
-12 11 -17 12 -20 2 -4 -9 -6 -9 -6 1 -1 6 -6 12 -13 12 -6 0 -3 -8 7 -20z"/>
<path d="M755 2240 c-3 -5 -1 -10 4 -10 6 0 11 5 11 10 0 6 -2 10 -4 10 -3 0
-8 -4 -11 -10z"/>
<path d="M1211 2214 c0 -11 3 -14 6 -6 3 7 2 16 -1 19 -3 4 -6 -2 -5 -13z"/>
<path d="M727 2173 c4 -11 2 -14 -5 -9 -7 4 -12 1 -12 -10 0 -16 1 -16 20 1
24 22 24 21 6 28 -11 4 -13 1 -9 -10z"/>
<path d="M2313 2165 c0 -8 4 -12 9 -9 5 3 6 10 3 15 -9 13 -12 11 -12 -6z"/>
<path d="M665 2110 c-4 -12 -11 -17 -18 -14 -7 4 -8 3 -4 -1 11 -12 38 -15 31
-4 -3 6 0 16 6 24 8 10 9 15 2 15 -6 0 -14 -9 -17 -20z"/>
<path d="M1135 2121 c-3 -5 -2 -12 3 -15 5 -3 9 1 9 9 0 17 -3 19 -12 6z"/>
<path d="M1955 2120 c-3 -6 1 -7 9 -4 18 7 21 14 7 14 -6 0 -13 -4 -16 -10z"/>
<path d="M1665 2100 c-3 -5 -1 -10 4 -10 6 0 11 5 11 10 0 6 -2 10 -4 10 -3 0
-8 -4 -11 -10z"/>
<path d="M2336 2095 c-3 -8 0 -17 6 -21 6 -4 8 -3 4 4 -3 6 2 12 11 14 16 3
17 4 1 10 -10 4 -18 1 -22 -7z"/>
<path d="M2058 2048 c10 -13 10 -17 0 -20 -8 -3 -9 -6 -1 -11 18 -12 23 21 5
35 -15 11 -16 11 -4 -4z"/>
<path d="M533 1997 c-4 -6 -1 -7 7 -2 10 6 12 4 6 -10 -5 -15 -4 -16 9 -5 8 7
15 16 15 20 0 10 -30 8 -37 -3z"/>
<path d="M1615 2000 c-3 -5 -1 -10 4 -10 6 0 11 5 11 10 0 6 -2 10 -4 10 -3 0
-8 -4 -11 -10z"/>
<path d="M490 1945 c0 -7 30 -13 34 -7 3 4 -4 9 -15 9 -10 1 -19 0 -19 -2z"/>
<path d="M1810 1943 c0 -1 8 -7 18 -12 13 -7 19 -6 19 2 0 7 -9 13 -19 13 -10
0 -18 -1 -18 -3z"/>
<path d="M1790 1921 c0 -5 7 -11 14 -14 10 -4 13 -1 9 9 -6 15 -23 19 -23 5z"/>
<path d="M1085 1910 c-3 -6 1 -7 9 -4 18 7 21 14 7 14 -6 0 -13 -4 -16 -10z"/>
<path d="M2545 1909 c-4 -6 -4 -13 -1 -16 3 -4 6 -1 6 6 0 7 5 9 12 5 7 -4 8
-3 4 4 -9 15 -13 15 -21 1z"/>
<path d="M1686 1894 c-3 -8 -10 -12 -16 -9 -5 3 -10 -2 -10 -11 0 -16 1 -16
18 -1 10 10 22 14 26 10 4 -4 4 0 0 10 -8 21 -10 21 -18 1z"/>
<path d="M2190 1904 c0 -7 27 -34 34 -34 4 0 1 9 -6 20 -12 19 -28 27 -28 14z"/>
<path d="M1977 1859 c7 -7 15 -10 18 -7 3 3 -2 9 -12 12 -14 6 -15 5 -6 -5z"/>
<path d="M1410 1820 c6 -11 13 -20 16 -20 2 0 0 9 -6 20 -6 11 -13 20 -16 20
-2 0 0 -9 6 -20z"/>
<path d="M2019 1813 c-13 -16 -12 -17 4 -4 9 7 17 15 17 17 0 8 -8 3 -21 -13z"/>
<path d="M2708 1753 c7 -3 16 -2 19 1 4 3 -2 6 -13 5 -11 0 -14 -3 -6 -6z"/>
<path d="M2075 1740 c-3 -5 -1 -10 4 -10 6 0 11 5 11 10 0 6 -2 10 -4 10 -3 0
-8 -4 -11 -10z"/>
<path d="M320 1730 c-8 -5 -10 -10 -5 -10 6 0 17 5 25 10 8 5 11 10 5 10 -5 0
-17 -5 -25 -10z"/>
<path d="M1319 1723 c0 -5 -2 -16 -4 -26 -2 -11 -1 -16 3 -13 8 8 14 46 7 46
-3 0 -5 -3 -6 -7z"/>
<path d="M2790 1666 c0 -2 7 -7 16 -10 8 -3 12 -2 9 4 -6 10 -25 14 -25 6z"/>
<path d="M1246 1631 c-3 -5 1 -14 9 -21 8 -7 13 -16 10 -20 -2 -4 3 -15 13
-23 16 -15 18 -15 19 3 1 11 -3 20 -8 20 -6 0 -7 5 -4 10 4 6 1 9 -6 8 -6 -2
-14 3 -17 11 -3 9 0 11 8 6 9 -5 11 -4 6 3 -9 14 -23 15 -30 3z"/>
<path d="M1570 1636 c0 -2 7 -7 16 -10 8 -3 12 -2 9 4 -6 10 -25 14 -25 6z"/>
<path d="M2467 1610 c-3 -11 -1 -18 3 -15 5 3 13 -3 19 -12 5 -10 13 -14 18
-9 4 5 2 11 -5 13 -6 3 -10 8 -7 13 3 4 -1 13 -9 19 -11 9 -15 7 -19 -9z"/>
<path d="M1315 1560 c3 -5 8 -10 11 -10 2 0 4 5 4 10 0 6 -5 10 -11 10 -5 0
-7 -4 -4 -10z"/>
<path d="M2241 1540 c14 -31 19 -36 19 -24 0 6 -7 19 -16 30 -14 18 -14 18 -3
-6z"/>
<path d="M2476 1552 c-2 -4 4 -8 14 -8 10 0 16 4 14 8 -3 4 -9 8 -14 8 -5 0
-11 -4 -14 -8z"/>
<path d="M1766 1491 c-14 -15 -15 -21 -4 -27 7 -4 10 -3 5 1 -4 5 0 17 10 27
9 10 14 18 11 18 -3 0 -13 -9 -22 -19z"/>
<path d="M2236 1461 c-3 -5 1 -11 9 -14 9 -4 12 -1 8 9 -6 16 -10 17 -17 5z"/>
<path d="M2828 1453 c7 -3 16 -2 19 1 4 3 -2 6 -13 5 -11 0 -14 -3 -6 -6z"/>
<path d="M1816 1442 c-2 -4 4 -8 14 -8 10 0 16 4 14 8 -3 4 -9 8 -14 8 -5 0
-11 -4 -14 -8z"/>
<path d="M310 1422 c6 -13 14 -21 18 -18 3 4 -2 14 -12 24 -18 16 -18 16 -6
-6z"/>
<path d="M701 1429 c-1 -8 6 -24 15 -35 15 -19 15 -19 6 1 -5 11 -12 27 -15
35 -5 13 -6 13 -6 -1z"/>
<path d="M2800 1424 c-11 -12 -11 -15 1 -12 8 2 13 -3 11 -10 -1 -8 2 -11 8
-7 8 5 7 12 -2 23 -11 13 -10 15 5 9 11 -4 16 -3 12 3 -9 14 -21 12 -35 -6z"/>
<path d="M1506 1422 c-3 -5 1 -9 9 -9 8 0 15 4 15 9 0 4 -4 8 -9 8 -6 0 -12
-4 -15 -8z"/>
<path d="M1556 1395 c-17 -13 -17 -15 -3 -21 9 -3 15 -10 12 -14 -11 -17 13
-19 26 -2 7 9 9 14 5 10 -5 -4 -15 -3 -23 3 -10 9 -10 15 -2 25 15 18 9 17
-15 -1z"/>
<path d="M295 1391 c-3 -5 -2 -12 3 -15 5 -3 9 1 9 9 0 17 -3 19 -12 6z"/>
<path d="M361 1346 c-9 -10 -9 -16 -1 -21 6 -4 10 -3 9 2 -3 20 2 27 11 13 6
-9 10 -10 10 -3 0 19 -17 24 -29 9z"/>
<path d="M788 1353 c7 -3 16 -2 19 1 4 3 -2 6 -13 5 -11 0 -14 -3 -6 -6z"/>
<path d="M1831 1344 c0 -11 3 -14 6 -6 3 7 2 16 -1 19 -3 4 -6 -2 -5 -13z"/>
<path d="M1800 1340 c0 -5 5 -10 11 -10 5 0 7 5 4 10 -3 6 -8 10 -11 10 -2 0
-4 -4 -4 -10z"/>
<path d="M2215 1340 c3 -5 8 -10 11 -10 2 0 4 5 4 10 0 6 -5 10 -11 10 -5 0
-7 -4 -4 -10z"/>
<path d="M1071 1294 c0 -11 3 -14 6 -6 3 7 2 16 -1 19 -3 4 -6 -2 -5 -13z"/>
<path d="M1090 1300 c0 -5 5 -10 11 -10 5 0 7 5 4 10 -3 6 -8 10 -11 10 -2 0
-4 -4 -4 -10z"/>
<path d="M845 1280 c-3 -6 1 -7 9 -4 18 7 21 14 7 14 -6 0 -13 -4 -16 -10z"/>
<path d="M438 1273 c7 -3 16 -2 19 1 4 3 -2 6 -13 5 -11 0 -14 -3 -6 -6z"/>
<path d="M480 1270 c-13 -8 -12 -10 3 -10 11 0 15 -4 11 -12 -4 -7 -3 -8 4 -4
6 4 9 13 5 21 -6 18 -4 17 -23 5z"/>
<path d="M885 1240 c-3 -5 -1 -10 4 -10 6 0 11 5 11 10 0 6 -2 10 -4 10 -3 0
-8 -4 -11 -10z"/>
<path d="M1143 1225 c0 -8 4 -12 9 -9 5 3 6 10 3 15 -9 13 -12 11 -12 -6z"/>
<path d="M564 1179 c-3 -6 -2 -15 3 -20 5 -5 9 -1 9 11 0 23 -2 24 -12 9z"/>
<path d="M2585 1170 c-25 -28 -27 -46 -7 -62 14 -10 15 -10 5 1 -8 10 -9 20
-1 37 9 20 14 22 27 11 14 -10 14 -10 4 4 -7 9 -10 19 -6 22 3 4 4 7 1 7 -3 0
-13 -9 -23 -20z"/>
<path d="M1506 1162 c-3 -5 1 -9 9 -9 8 0 12 4 9 9 -3 4 -7 8 -9 8 -2 0 -6 -4
-9 -8z"/>
<path d="M2034 1148 l-19 -23 25 20 c14 11 27 21 29 22 2 2 0 3 -6 3 -5 0 -18
-10 -29 -22z"/>
<path d="M1650 1149 c0 -5 5 -7 10 -4 6 3 10 8 10 11 0 2 -4 4 -10 4 -5 0 -10
-5 -10 -11z"/>
<path d="M1967 1112 c-15 -15 -27 -32 -27 -38 0 -5 4 -3 9 5 8 13 12 13 28 0
16 -13 17 -12 5 3 -15 19 -7 42 10 32 6 -4 8 -2 4 4 -3 5 0 13 6 15 7 3 8 6 2
6 -5 1 -22 -12 -37 -27z"/>
<path d="M1601 1113 c12 -15 12 -16 -3 -10 -10 3 -17 3 -17 -1 3 -20 -2 -25
-12 -12 -9 13 -10 13 -6 -2 3 -9 1 -19 -6 -21 -7 -3 -2 -4 10 -4 12 1 21 6 20
12 -1 5 5 9 14 9 11 -1 16 5 14 15 -2 9 -4 19 -4 24 -1 4 -6 7 -12 7 -8 0 -7
-6 2 -17z"/>
<path d="M1329 1084 c-23 -25 -23 -26 -2 -13 13 7 25 19 27 26 8 19 2 16 -25
-13z"/>
<path d="M1375 1099 c-4 -6 -5 -12 -2 -15 2 -3 7 2 10 11 7 17 1 20 -8 4z"/>
<path d="M2525 1099 c-3 -4 2 -6 10 -5 21 3 28 13 10 13 -9 0 -18 -4 -20 -8z"/>
<path d="M1055 1061 c-3 -5 -1 -12 5 -16 5 -3 10 1 10 9 0 18 -6 21 -15 7z"/>
<path d="M1346 1058 c3 -5 10 -6 15 -3 13 9 11 12 -6 12 -8 0 -12 -4 -9 -9z"/>
<path d="M1493 1030 c-1 -11 2 -20 7 -20 4 0 7 7 6 15 -3 23 -12 26 -13 5z"/>
<path d="M2459 1032 c-2 -21 -4 -27 -11 -38 -8 -13 0 -24 16 -24 6 0 4 5 -4
10 -12 7 -12 10 -1 10 8 0 11 6 7 15 -4 12 0 14 19 11 14 -3 25 0 25 6 0 5 -6
8 -14 5 -7 -3 -19 0 -25 6 -8 8 -11 8 -12 -1z"/>
<path d="M756 992 c-3 -5 1 -17 8 -27 12 -17 13 -17 11 3 -2 26 -11 37 -19 24z"/>
<path d="M1453 973 c4 -32 12 -36 28 -16 8 9 9 14 2 10 -7 -4 -16 0 -22 10
-10 16 -10 16 -8 -4z"/>
<path d="M2040 979 c0 -5 5 -7 10 -4 6 3 10 8 10 11 0 2 -4 4 -10 4 -5 0 -10
-5 -10 -11z"/>
<path d="M1135 970 c3 -5 8 -10 11 -10 2 0 4 5 4 10 0 6 -5 10 -11 10 -5 0 -7
-4 -4 -10z"/>
<path d="M2410 940 c0 -5 5 -10 10 -10 6 0 10 5 10 10 0 6 -4 10 -10 10 -5 0
-10 -4 -10 -10z"/>
<path d="M1790 920 c0 -5 5 -10 11 -10 5 0 7 5 4 10 -3 6 -8 10 -11 10 -2 0
-4 -4 -4 -10z"/>
<path d="M1955 920 c-3 -5 -1 -10 4 -10 6 0 11 5 11 10 0 6 -2 10 -4 10 -3 0
-8 -4 -11 -10z"/>
<path d="M1916 883 c-6 -14 -5 -15 5 -6 7 7 10 15 7 18 -3 3 -9 -2 -12 -12z"/>
<path d="M1305 880 c-3 -5 -5 -10 -3 -11 29 -7 36 -5 31 7 -6 16 -19 18 -28 4z"/>
<path d="M1711 876 c-13 -7 -20 -15 -15 -18 5 -3 18 3 28 13 23 22 20 23 -13
5z"/>
<path d="M910 829 c-23 -18 -23 -19 -2 -9 15 7 22 7 22 0 0 -5 5 -10 11 -10 8
0 9 4 0 13 -6 8 -8 17 -4 20 14 15 -3 5 -27 -14z"/>
<path d="M1641 826 c-8 -10 -9 -16 -1 -21 5 -3 10 -5 11 -3 4 18 7 38 4 38 -1
0 -8 -6 -14 -14z"/>
<path d="M1857 817 c-7 -18 17 -17 35 1 9 9 9 12 0 12 -7 0 -12 -6 -12 -12 0
-10 -2 -10 -9 0 -7 11 -9 11 -14 -1z"/>
<path d="M1516 694 c-4 -9 -4 -19 -1 -22 2 -3 7 3 11 12 4 9 4 19 1 22 -2 3
-7 -3 -11 -12z"/>
<path d="M2168 676 c-10 -7 -18 -17 -18 -21 0 -4 8 -1 17 6 15 12 16 12 10 -4
-4 -10 -3 -16 2 -12 6 3 9 14 8 25 -1 11 -1 20 -2 20 0 0 -8 -7 -17 -14z"/>
<path d="M1493 649 c-2 -23 3 -25 10 -4 4 8 3 16 -1 19 -4 3 -9 -4 -9 -15z"/>
<path d="M1634 600 c2 -16 20 -14 24 2 3 10 2 10 -6 -1 -7 -9 -11 -10 -15 -2
-4 7 -5 8 -3 1z"/>
<path d="M1355 590 c3 -5 8 -10 11 -10 2 0 4 5 4 10 0 6 -5 10 -11 10 -5 0 -7
-4 -4 -10z"/>
<path d="M1561 534 c0 -11 3 -14 6 -6 3 7 2 16 -1 19 -3 4 -6 -2 -5 -13z"/>
<path d="M1987 465 c3 -8 9 -12 14 -9 12 7 11 11 -5 17 -10 4 -13 1 -9 -8z"/>
<path d="M1510 460 c-9 -6 -10 -10 -3 -10 6 0 15 5 18 10 8 12 4 12 -15 0z"/>
<path d="M1917 413 c-4 -6 0 -13 8 -17 8 -3 17 0 21 6 4 6 3 8 -4 4 -5 -3 -12
-1 -14 6 -3 8 -6 9 -11 1z"/>
<path d="M1820 315 c-8 -9 -8 -15 -2 -15 6 0 12 6 15 13 3 9 8 8 23 -3 18 -14
18 -14 5 3 -17 21 -25 21 -41 2z"/>
<path d="M1490 286 c14 -18 13 -18 -10 -13 -14 4 -19 4 -12 1 6 -3 10 -9 8
-13 -3 -4 1 -8 9 -8 8 0 15 5 15 11 0 6 5 4 10 -4 5 -8 10 -10 10 -4 0 6 -10
19 -22 30 -22 18 -22 18 -8 0z"/>
<path d="M1580 215 c-7 -9 -11 -17 -9 -20 3 -2 10 5 17 15 14 24 10 26 -8 5z"/>
<path d="M1595 190 c3 -5 8 -10 11 -10 2 0 4 5 4 10 0 6 -5 10 -11 10 -5 0 -7
-4 -4 -10z"/>
<path d="M1675 160 c3 -5 8 -10 11 -10 2 0 4 5 4 10 0 6 -5 10 -11 10 -5 0 -7
-4 -4 -10z"/>
</g>
</svg>
